<svg xmlns="http://www.w3.org/2000/svg" width="119" height="24" viewBox="0 0 119 24">
    <g fill="none" fill-rule="evenodd">
        <path fill="#E60F6B" d="M.15.48h23.62v23.4H.15z"/>
        <path fill="#FFF" d="M15.24 18c-.1-.46-.203-.907-.31-1.34l-.32-1.34H9.33c-.127.46-.24.907-.34 1.34L8.66 18h-2.2a196.552 196.552 0 0 1 3.79-12.51h3.45c.733 2.08 1.4 4.153 2 6.22.6 2.067 1.187 4.163 1.76 6.29h-2.22zm-3.7-10.49c-.32 1.027-.63 2.047-.93 3.06a94.807 94.807 0 0 0-.86 3.1h4.42a94.989 94.989 0 0 0-.84-3.1 221.034 221.034 0 0 0-.91-3.06h-.88z"/>
        <path fill="#E40062" d="M23.77.48h23.62v23.4H23.77z"/>
        <path fill="#FFF" d="M39.46 10.66v1.76h-6v1.81a2.26 2.26 0 0 0 .85 2h5.5V18H33.5c-1.413-.593-2.12-1.893-2.12-3.9V5.52h8.35v1.86h-6.3v3.28h6.03z"/>
        <path fill="#D9006A" d="M47.39.48h23.62v23.4H47.39z"/>
        <path fill="#FFF" d="M62.75 5.54v8.41a7.34 7.34 0 0 1-.26 2.14 3.08 3.08 0 0 1-.72 1.29 2.35 2.35 0 0 1-1.11.62 5.89 5.89 0 0 1-1.43.17c-.767 0-1.473-.02-2.12-.06-.64 0-1.13-.09-1.47-.14l.23-1.82c.44.065.885.105 1.33.12h2a1.45 1.45 0 0 0 1.11-.39 1.84 1.84 0 0 0 .36-1.27V5.54h2.08z"/>
        <path fill="#CD0475" d="M71.1.48h23.62v23.4H71.1z"/>
        <path fill="#FFF" d="M81.89 5.54h2V18h-2z"/>
        <path fill="#B51681" d="M94.64.48h23.62v23.4H94.64z"/>
        <path fill="#FFF" d="M108.37 7.22c-.58-.047-1.17-.07-1.77-.07a9.5 9.5 0 0 0-1.39.09 3.79 3.79 0 0 0-1.07.34v1.48a1.07 1.07 0 0 0 .18.63.94.94 0 0 0 .45.36c.326.113.66.2 1 .26l1.22.23 1.21.25c.345.07.68.18 1 .33a2.52 2.52 0 0 1 1.19 1.25c.29.73.424 1.514.39 2.3a4.22 4.22 0 0 1-.36 1.88 2.61 2.61 0 0 1-1 1.1 4.18 4.18 0 0 1-1.55.52 13.56 13.56 0 0 1-2 .13c-.73 0-1.4 0-2-.06-.6-.06-1.15-.09-1.68-.14l.22-2a18.785 18.785 0 0 0 3.43.31h1.06a2.58 2.58 0 0 0 .91-.23 1.51 1.51 0 0 0 .64-.57 2 2 0 0 0 .24-1.08 4 4 0 0 0-.08-.89 1.1 1.1 0 0 0-.32-.57 1.85 1.85 0 0 0-.65-.36 6.29 6.29 0 0 0-1.06-.24c-.48-.08-.98-.177-1.5-.29a5.25 5.25 0 0 1-1.44-.54 3.14 3.14 0 0 1-1.08-1 2.93 2.93 0 0 1-.42-1.67V6.51a6.34 6.34 0 0 1 1.79-.83 9.4 9.4 0 0 1 2.79-.35 27.505 27.505 0 0 1 3.54.23l-.12 1.86c-.6-.1-1.19-.16-1.77-.2z"/>
    </g>
</svg>
