<?xml version="1.0" encoding="UTF-8"?>
<svg width="1009px" height="999px" viewBox="0 0 1009 999" version="1.1" xmlns="http://www.w3.org/2000/svg" xmlns:xlink="http://www.w3.org/1999/xlink">
    <!-- Generator: Sketch 46.2 (44496) - http://www.bohemiancoding.com/sketch -->
    <title>bg-line</title>
    <desc>Created with Sketch.</desc>
    <defs></defs>
    <g id="Page-1" stroke="none" stroke-width="1" fill="none" fill-rule="evenodd">
        <g id="main-page-copy-2" transform="translate(-175.000000, -881.000000)">
            <g id="bg-line" transform="translate(170.000000, 875.000000)">
                <rect id="Rectangle-6" fill-opacity="0" fill="#D8D8D8" x="0" y="0" width="1100" height="1082"></rect>
                <path d="M1008.90811,241.802433 L1008.90811,71.0005161 C1008.90811,37.8631461 982.05057,11 948.912707,11 L519.294042,11 C486.159495,11 459.298638,37.8605887 459.298638,70.9956523 L459.298638,176.820174 C459.298638,209.954858 486.170433,236.815826 519.303287,236.815826 L668.631177,236.815826 C701.770829,236.815826 728.635826,263.682294 728.635826,296.813651 L728.635826,337.332202 C728.635826,370.468085 701.768243,397.330026 668.626517,397.330026 L483.059333,397.330026 C449.917107,397.330026 423.050024,424.193547 423.050024,457.323698 L423.050024,537.972729 C423.050024,571.106319 396.192479,597.966401 363.040158,597.966401 L202.624471,597.966401 C169.481937,597.966401 142.614605,571.095768 142.614605,537.963194 L142.614605,477.017145 C142.614605,443.87829 115.758097,417.013939 82.6122622,417.013939 L70.0023424,417.013939 C36.8639638,417.013939 10,443.884379 10,477.014622 L10,680.734137 C10,713.871599 36.860139,740.73482 70.0066094,740.73482 L610.371398,740.73482 C643.512134,740.73482 670.378008,713.879872 670.378008,680.739458 L670.378008,609.404344 C670.378008,576.26982 697.238119,549.408981 730.386362,549.408981 L920.29019,549.408981 C953.431889,549.408981 980.298544,576.263251 980.298544,609.405849 L980.298544,778.653649 C980.298544,811.789004 980.298544,865.521384 980.298544,898.653588 L980.298544,939.865675 C980.298544,973.004457 953.442413,999.868747 920.305073,999.868747 L542.416868,999.868747 C509.283388,999.868747 482.423396,973.005159 482.423396,939.863698 L482.423396,787.122585" id="Path-3" stroke="#F7F7F7" stroke-width="10"></path>
            </g>
        </g>
    </g>
</svg>