<?xml version="1.0" encoding="utf-8"?>
<!-- Generator: Adobe Illustrator 20.1.0, SVG Export Plug-In . SVG Version: 6.00 Build 0)  -->
<svg version="1.1" id="Слой_1" xmlns="http://www.w3.org/2000/svg" xmlns:xlink="http://www.w3.org/1999/xlink" x="0px" y="0px"
	 viewBox="0 0 1100 1099" style="enable-background:new 0 0 1100 1099;" xml:space="preserve">
<style type="text/css">
	.st0{fill:#D8D8D8;fill-opacity:0;}
	.st1{fill:none;stroke:#F7F7F7;stroke-width:10;}
</style>
<title>bg-line</title>
<desc>Created with Sketch.</desc>
<g id="Page-1">
	<g id="main-page-copy-2" transform="translate(-175.000000, -881.000000)">
		<g id="bg-line" transform="translate(170.000000, 858.000000)">
			<rect id="Rectangle-6" x="5" y="23" class="st0" width="1100" height="1099"/>
			<path id="Path-3_2_" class="st1" d="M733,357.8l210.1,0.7c39.1,0.1,70.8-31.5,70.8-70.5V111c0-33.1-26.9-60-60-60H524.3
				c-33.1,0-60,26.9-60,60v105.8c0,33.1,26.9,60,60,60h149.3c33.1,0,60,26.9,60,60v40.5c0,33.1-26.9,60-60,60H488.1
				c-33.1,0-60,26.9-60,60V578c0,33.1-26.9,60-60,60H207.6c-33.1,0-60-26.9-60-60V517c0-33.1-26.9-60-60-60H75
				c-33.1,0-60,26.9-60,60v203.7c0,33.1,26.9,60,60,60h540.4c33.1,0,60-26.9,60-60v-71.3c0-33.1,26.9-60,60-60h189.9
				c33.1,0,60,26.9,60,60v169.2c0,33.1,0,86.9,0,120v41.2c0,33.1-26.9,60-60,60H547.4c-33.1,0-60-26.9-60-60V827.1"/>
		</g>
	</g>
</g>
</svg>
