<svg id="Layer_1" data-name="Layer 1" xmlns="http://www.w3.org/2000/svg" viewBox="0 0 661.95 342"><defs><style>.cls-1,.cls-2{fill:none;}.cls-1{stroke:#f7f7f7;stroke-linecap:round;stroke-linejoin:round;stroke-width:3px;}</style></defs><title>bg-pattern</title><line class="cls-1" x1="226.23" y1="167.65" x2="210.98" y2="153.34"/><line class="cls-1" x1="211.45" y1="168.13" x2="225.76" y2="152.87"/><line class="cls-1" x1="52.56" y1="85.45" x2="52.15" y2="72.55"/><line class="cls-1" x1="45.9" y1="79.21" x2="58.8" y2="78.79"/><polygon class="cls-1" points="146.64 82.17 149.97 69.72 137.52 73.06 125.07 76.41 134.19 85.51 143.31 94.63 146.64 82.17"/><circle class="cls-1" cx="295.23" cy="111.79" r="8.95"/><path class="cls-1" d="M42.9,183.28a10.63,10.63,0,1,1,21.26,0"/><path class="cls-1" d="M257,69.59a6.68,6.68,0,1,1,0-13.35"/><rect class="cls-1" x="173.61" y="225.73" width="19.65" height="19.65"/><path class="cls-1" d="M63.26,275.32c-5.18,0-4.29-9.19-10.9-9.19"/><path class="cls-1" d="M85.06,275.32c-5.18,0-4.29-9.19-10.9-9.19"/><path class="cls-1" d="M63.26,275.32c5.18,0,4.29-9.19,10.9-9.19"/><path class="cls-1" d="M85.06,275.32c5.18,0,4.29-9.19,10.9-9.19"/><path class="cls-1" d="M275.85,270.61c0,3.46-6.13,2.86-6.13,7.27"/><path class="cls-1" d="M275.85,256.07c0,3.46-6.13,2.86-6.13,7.27"/><path class="cls-1" d="M275.85,270.61c0-3.46-6.13-2.86-6.13-7.27"/><path class="cls-1" d="M275.85,256.07c0-3.45-6.13-2.86-6.13-7.27"/><line class="cls-1" x1="277.53" y1="211.16" x2="295.03" y2="193.67"/><circle class="cls-1" cx="143.1" cy="175.5" r="6.26" transform="translate(-71.49 103.18) rotate(-32.18)"/><rect class="cls-2" x="1.02" y="1.02" width="339.95" height="339.95"/><line class="cls-1" x1="547.21" y1="167.65" x2="531.96" y2="153.34"/><line class="cls-1" x1="532.43" y1="168.13" x2="546.74" y2="152.87"/><line class="cls-1" x1="373.54" y1="85.45" x2="373.13" y2="72.55"/><line class="cls-1" x1="366.88" y1="79.21" x2="379.78" y2="78.79"/><polygon class="cls-1" points="467.62 82.17 470.94 69.72 458.5 73.06 446.05 76.41 455.17 85.51 464.29 94.63 467.62 82.17"/><circle class="cls-1" cx="616.2" cy="111.79" r="8.95"/><path class="cls-1" d="M363.88,183.28a10.63,10.63,0,1,1,21.26,0"/><path class="cls-1" d="M578,69.59a6.68,6.68,0,1,1,0-13.35"/><rect class="cls-1" x="494.59" y="225.73" width="19.65" height="19.65"/><path class="cls-1" d="M384.23,275.32c-5.18,0-4.29-9.19-10.9-9.19"/><path class="cls-1" d="M406,275.32c-5.18,0-4.29-9.19-10.9-9.19"/><path class="cls-1" d="M384.23,275.32c5.18,0,4.29-9.19,10.9-9.19"/><path class="cls-1" d="M406,275.32c5.18,0,4.29-9.19,10.9-9.19"/><path class="cls-1" d="M596.83,270.61c0,3.46-6.13,2.86-6.13,7.27"/><path class="cls-1" d="M596.83,256.07c0,3.46-6.13,2.86-6.13,7.27"/><path class="cls-1" d="M596.83,270.61c0-3.46-6.13-2.86-6.13-7.27"/><path class="cls-1" d="M596.83,256.07c0-3.45-6.13-2.86-6.13-7.27"/><line class="cls-1" x1="598.51" y1="211.16" x2="616.01" y2="193.67"/><circle class="cls-1" cx="464.08" cy="175.5" r="6.26" transform="translate(-22.17 274.14) rotate(-32.18)"/><rect class="cls-2" x="322" y="1.02" width="339.95" height="339.95"/></svg>