<?xml version="1.0" encoding="UTF-8"?>
<svg width="144px" height="94px" viewBox="0 0 144 94" version="1.1" xmlns="http://www.w3.org/2000/svg" xmlns:xlink="http://www.w3.org/1999/xlink">
    <!-- Generator: Sketch 43.2 (39069) - http://www.bohemiancoding.com/sketch -->
    <title>ic_IOS</title>
    <desc>Created with Sketch.</desc>
    <defs>
        <linearGradient x1="102.112398%" y1="0%" x2="0.796957521%" y2="97.6781728%" id="linearGradient-1">
            <stop stop-color="#FCFCFC" offset="0%"></stop>
            <stop stop-color="#F5F5F5" offset="100%"></stop>
        </linearGradient>
        <path d="M45.6428571,64.0223054 C45.0895778,65.7956367 44.2171119,67.5689413 43.0254333,69.3422726 C41.1953554,72.122856 39.3723982,73.5131269 37.556507,73.5131269 C36.8613612,73.5131269 35.8683106,73.2861439 34.5773254,72.8321711 C33.3572735,72.3781983 32.2861975,72.1512153 31.3640652,72.1512153 C30.4986796,72.1512153 29.4914425,72.3852915 28.3423239,72.8534509 C27.1932052,73.335797 26.2569003,73.5769665 25.5333812,73.5769665 C23.3770104,73.5769665 21.2419516,71.7398228 19.1281407,68.0654805 C17.0427031,64.3627648 16,60.7948758 16,57.3617065 C16,54.1271503 16.8015337,51.4742865 18.4046252,49.4030356 C19.99353,47.360158 22.0080041,46.3387345 24.4481079,46.3387345 C25.4695467,46.3387345 26.7250464,46.551531 28.2146447,46.9771306 C29.6900563,47.4027301 30.6689204,47.6155266 31.1512665,47.6155266 C31.7896658,47.6155266 32.8039961,47.3743572 34.1942878,46.8920111 C35.6413261,46.409665 36.8684529,46.1684955 37.8757051,46.1684955 C39.5639164,46.1684955 41.074772,46.6295548 42.4083171,47.551687 C43.1460229,48.0624064 43.8837176,48.7717283 44.6214234,49.6796739 C43.5006781,50.6301794 42.6920512,51.4671792 42.1955184,52.1906984 C41.2733862,53.5242435 40.8123269,54.9925398 40.8123269,56.5956312 C40.8123269,58.3547758 41.301759,59.9365636 42.2806379,61.3410419 C43.2595167,62.7455203 44.3802453,63.6392659 45.6428571,64.0223054 Z M37.6416265,39.0610194 C37.6416265,39.926405 37.4359232,40.8910828 37.0245103,41.9550815 C36.5989108,43.0190803 35.9392415,43.9979445 35.0454825,44.8917034 C34.2794034,45.6577825 33.5133358,46.1684943 32.7472567,46.423854 C32.2223506,46.5799071 31.4846559,46.7004918 30.5341503,46.7856117 C30.5767103,44.6718009 31.1299813,42.8488437 32.1939801,41.3166855 C33.2437922,39.7987139 35.0170969,38.7489175 37.5139473,38.1672649 C37.5281339,38.2098248 37.545867,38.2878503 37.567147,38.4013435 C37.5884269,38.5148367 37.60616,38.5928621 37.6203466,38.635422 C37.6203466,38.6921686 37.6238932,38.7631008 37.6309866,38.8482207 C37.6380799,38.9333406 37.6416265,39.0042728 37.6416265,39.0610194 Z" id="path-2"></path>
        <path d="M15.5,0.623781971 C14.7236001,0.220778015 13.8807979,0 13,0 C9.13400675,0 6,4.25329488 6,9.5 C6,14.7467051 9.13400675,19 13,19 C13.8807979,19 14.7236001,18.779222 15.5,18.376218 C12.8686298,17.0103592 11,13.5513366 11,9.5 C11,5.44866342 12.8686298,1.9896408 15.5,0.623781971 Z" id="path-3"></path>
        <path d="M12.266138,1.96755835 C11.0850927,0.733705846 9.60568124,0 8,0 C4.13400675,0 1,4.25329488 1,9.5 C1,14.7467051 4.13400675,19 8,19 C9.60568124,19 11.0850927,18.2662942 12.266138,17.0324417 C9.23880537,16.1758341 7,13.128229 7,9.5 C7,5.87177103 9.23880537,2.8241659 12.266138,1.96755835 Z" id="path-4"></path>
        <rect id="path-5" x="0" y="4" width="10" height="11" rx="2"></rect>
    </defs>
    <g id="Page-1" stroke="none" stroke-width="1" fill="none" fill-rule="evenodd">
        <g id="main-page" transform="translate(-270.000000, -793.000000)">
            <g id="ic_IOS" transform="translate(270.000000, 793.000000)">
                <rect id="Rectangle-16" fill="#FFFFFF" x="0" y="0" width="144" height="94"></rect>
                <g id="Group-4" transform="translate(26.000000, 10.000000)">
                    <rect id="Rectangle-6" stroke="#C8C1C8" x="33.5" y="0.5" width="51" height="68" rx="2"></rect>
                    <circle id="Oval" stroke="#C8C1C8" cx="59" cy="4" r="1"></circle>
                    <rect id="Rectangle-7" fill="url(#linearGradient-1)" x="38" y="7" width="42" height="15"></rect>
                    <rect id="Rectangle-7-Copy" fill="url(#linearGradient-1)" x="38" y="25" width="42" height="15"></rect>
                    <rect id="Rectangle-7-Copy-2" fill="url(#linearGradient-1)" x="38" y="43" width="42" height="15"></rect>
                    <path d="M59,64.5 C58.1715729,64.5 57.5,63.8284271 57.5,63 C57.5,62.1715729 58.1715729,61.5 59,61.5 C59.8284271,61.5 60.5,62.1715729 60.5,63 C60.5,63.8284271 59.8284271,64.5 59,64.5 Z" id="Oval-Copy" stroke="#C8C1C8"></path>
                    <g id="Group-6" transform="translate(0.000000, 31.000000)">
                        <circle id="Oval-Copy-2" stroke="#C8C1C8" cx="12" cy="4" r="1"></circle>
                        <path d="M12,34.5 C11.1715729,34.5 10.5,33.8284271 10.5,33 C10.5,32.1715729 11.1715729,31.5 12,31.5 C12.8284271,31.5 13.5,32.1715729 13.5,33 C13.5,33.8284271 12.8284271,34.5 12,34.5 Z" id="Oval-Copy-3" stroke="#C8C1C8"></path>
                        <rect id="Rectangle-6-Copy" stroke="#C8C1C8" x="0.5" y="0.5" width="23" height="37" rx="2"></rect>
                        <rect id="Rectangle-9" fill="url(#linearGradient-1)" x="4" y="7" width="16" height="22"></rect>
                    </g>
                    <g id="" stroke-linecap="round" stroke-linejoin="round">
                        <use fill="#FFFFFF" fill-rule="evenodd" xlink:href="#path-2"></use>
                        <use fill="black" fill-opacity="1" xlink:href="#path-2"></use>
                    </g>
                    <g id="Group-5" transform="translate(76.000000, 50.000000)">
                        <g id="Combined-Shape-Copy" transform="translate(10.750000, 9.500000) scale(-1, 1) translate(-10.750000, -9.500000) ">
                            <use fill="#FFFFFF" fill-rule="evenodd" xlink:href="#path-3"></use>
                            <path stroke="#C8C1C8" stroke-width="1" d="M14.4081793,0.713177756 C12.0279734,2.43906218 10.5,5.78466423 10.5,9.5 C10.5,13.2153358 12.0279734,16.5609378 14.4081793,18.2868222 C13.9495677,18.4280198 13.4782895,18.5 13,18.5 C9.44894877,18.5 6.5,14.4978552 6.5,9.5 C6.5,4.50214476 9.44894877,0.5 13,0.5 C13.4782895,0.5 13.9495677,0.571980215 14.4081793,0.713177756 Z"></path>
                        </g>
                        <g id="Combined-Shape">
                            <use fill="#FFFFFF" fill-rule="evenodd" xlink:href="#path-4"></use>
                            <path stroke="#C8C1C8" stroke-width="1" d="M11.3221219,1.76958101 C8.45831269,2.97420875 6.5,6.02608952 6.5,9.5 C6.5,12.9739105 8.45831269,16.0257912 11.3221219,17.230419 C10.3245904,18.0568205 9.18396327,18.5 8,18.5 C4.44894877,18.5 1.5,14.4978552 1.5,9.5 C1.5,4.50214476 4.44894877,0.5 8,0.5 C9.18396327,0.5 10.3245904,0.943179461 11.3221219,1.76958101 Z"></path>
                        </g>
                        <g id="Rectangle-8">
                            <use fill="#FFFFFF" fill-rule="evenodd" xlink:href="#path-5"></use>
                            <rect stroke="#C8C1C8" stroke-width="1" x="0.5" y="4.5" width="9" height="10" rx="2"></rect>
                        </g>
                        <rect id="Rectangle-7-Copy-2" fill="url(#linearGradient-1)" x="2" y="6" width="6" height="7"></rect>
                    </g>
                </g>
            </g>
        </g>
    </g>
</svg>