<?xml version="1.0" encoding="UTF-8"?>
<svg width="222px" height="173px" viewBox="0 0 222 173" version="1.1" xmlns="http://www.w3.org/2000/svg" xmlns:xlink="http://www.w3.org/1999/xlink">
    <!-- Generator: Sketch 46.2 (44496) - http://www.bohemiancoding.com/sketch -->
    <title>ill 1</title>
    <desc>Created with Sketch.</desc>
    <defs>
        <rect id="path-1" x="0" y="0" width="240" height="180"></rect>
    </defs>
    <g id="Page-1" stroke="none" stroke-width="1" fill="none" fill-rule="evenodd">
        <g id="main-page-copy-2" transform="translate(-890.000000, -904.000000)">
            <g id="ill-1" transform="translate(880.000000, 897.000000)">
                <g id="ill">
                    <mask id="mask-2" fill="white">
                        <use xlink:href="#path-1"></use>
                    </mask>
                    <use id="Mask" fill-opacity="0" fill="#D8D8D8" xlink:href="#path-1"></use>
                    <g mask="url(#mask-2)">
                        <g transform="translate(11.000000, 8.000000)">
                            <path d="M23.4265929,173 L7.09363836,173 L7.09363836,173 C6.65622178,173 6.26956753,172.71571 6.13913285,172.298193 L0.405563404,153.945252 L0.405563404,153.945252 C0.240875806,153.418093 0.534716803,152.857241 1.06187564,152.692553 C1.15840128,152.662398 1.25894259,152.647059 1.36006892,152.647059 L29.1601623,152.647059 L29.1601623,152.647059 C29.712447,152.647059 30.1601623,153.094774 30.1601623,153.647059 C30.1601623,153.748185 30.144823,153.848726 30.1146678,153.945252 L24.3810984,172.298193 L24.3810984,172.298193 C24.2506637,172.71571 23.8640094,173 23.4265929,173 Z" id="Fill-55" stroke="none" fill="#FFFFFF" fill-rule="evenodd"></path>
                            <path d="M23.4265929,173 L7.09363836,173 L7.09363836,173 C6.65622178,173 6.26956753,172.71571 6.13913285,172.298193 L0.405563404,153.945252 L0.405563404,153.945252 C0.240875806,153.418093 0.534716803,152.857241 1.06187564,152.692553 C1.15840128,152.662398 1.25894259,152.647059 1.36006892,152.647059 L29.1601623,152.647059 L29.1601623,152.647059 C29.712447,152.647059 30.1601623,153.094774 30.1601623,153.647059 C30.1601623,153.748185 30.144823,153.848726 30.1146678,153.945252 L24.3810984,172.298193 L24.3810984,172.298193 C24.2506637,172.71571 23.8640094,173 23.4265929,173 Z" id="Stroke-56" stroke="#EF4D96" stroke-width="2" fill="none" stroke-linejoin="round"></path>
                            <path d="M206.401694,173 L185.27715,173 L185.27715,173 C184.772813,173 184.347405,172.624443 184.284868,172.123998 L180.719764,143.594586 L180.719764,143.594586 C180.651282,143.046564 181.040026,142.546788 181.588048,142.478306 C181.629181,142.473166 181.670594,142.470588 181.712046,142.470588 L209.966798,142.470588 L209.966798,142.470588 C210.519082,142.470588 210.966798,142.918303 210.966798,143.470588 C210.966798,143.512041 210.96422,143.553453 210.95908,143.594586 L207.393976,172.123998 L207.393976,172.123998 C207.331439,172.624443 206.906031,173 206.401694,173 Z" id="Fill-57" stroke="none" fill="#FFFFFF" fill-rule="evenodd"></path>
                            <path d="M198.930867,162.823529 C198.839306,162.396116 198.745203,161.981428 198.648555,161.579456 C198.551907,161.177483 198.452717,160.762796 198.350983,160.335382 L193.513526,160.335382 C193.401618,160.762796 193.297342,161.177483 193.200694,161.579456 C193.104046,161.981428 193.004856,162.396116 192.903121,162.823529 L190.888786,162.823529 C191.407633,160.849284 191.954448,158.903054 192.529249,156.984779 C193.104049,155.066505 193.711904,153.135539 194.352832,151.191824 L197.511676,151.191824 C198.183125,153.125363 198.803697,155.05124 199.37341,156.969515 C199.943124,158.887789 200.472136,160.839108 200.960462,162.823529 L198.930867,162.823529 Z M195.543121,153.054118 C195.248091,154.010711 194.965782,154.959657 194.696185,155.900985 C194.426588,156.842314 194.164626,157.801436 193.910289,158.778382 L197.95422,158.778382 C197.710057,157.801436 197.453181,156.842314 197.183584,155.900985 C196.913987,154.959657 196.636764,154.010711 196.351908,153.054118 L195.543121,153.054118 Z" id="A" stroke="#EF4D96" stroke-width="0.699999988" fill="#E0106E" fill-rule="evenodd" stroke-linecap="round" stroke-linejoin="round"></path>
                            <path d="M206.401694,173 L185.27715,173 L185.27715,173 C184.772813,173 184.347405,172.624443 184.284868,172.123998 L180.719764,143.594586 L180.719764,143.594586 C180.651282,143.046564 181.040026,142.546788 181.588048,142.478306 C181.629181,142.473166 181.670594,142.470588 181.712046,142.470588 L209.966798,142.470588 L209.966798,142.470588 C210.519082,142.470588 210.966798,142.918303 210.966798,143.470588 C210.966798,143.512041 210.96422,143.553453 210.95908,143.594586 L207.393976,172.123998 L207.393976,172.123998 C207.331439,172.624443 206.906031,173 206.401694,173 Z" id="Stroke-58" stroke="#EF4D96" stroke-width="2" fill="none" stroke-linejoin="round"></path>
                            <path d="M24.433526,152.647059 L6.0867052,152.647059 L6.0867052,152.647059 C5.53442045,152.647059 5.0867052,152.199344 5.0867052,151.647059 L5.0867052,126.433733 L5.0867052,126.433733 C5.0867052,126.119027 5.23485178,125.82268 5.48658971,125.63382 L14.6600001,118.751693 L14.6600001,118.751693 C15.0156027,118.48491 15.5046285,118.48491 15.8602311,118.751693 L25.0336415,125.63382 L25.0336415,125.63382 C25.2853794,125.82268 25.433526,126.119027 25.433526,126.433733 L25.433526,151.647059 L25.433526,151.647059 C25.433526,152.199344 24.9858108,152.647059 24.433526,152.647059 Z" id="Fill-59" stroke="none" fill="#FFFFFF" fill-rule="evenodd"></path>
                            <path d="M119.089284,172.678709 L114.681139,159.686061 L114.681139,159.686061 C114.543477,159.280314 114.162624,159.007353 113.734159,159.007353 L97.364107,159.007353 L97.364107,159.007353 C96.9356421,159.007353 96.5547887,159.280314 96.4171266,159.686061 L92.0089814,172.678709 L92.0089814,172.678709 C91.831537,173.201711 92.1116675,173.769536 92.6346703,173.94698 C92.7381512,173.982089 92.8466871,174 92.9559618,174 L118.142304,174 L118.142304,174 C118.694589,174 119.142304,173.552285 119.142304,173 C119.142304,172.890725 119.124394,172.782189 119.089284,172.678709 Z" id="Fill-60" stroke="none" fill="#FFFFFF" fill-rule="evenodd"></path>
                            <path d="M137.34104,72.5073529 L165.589595,72.5073529 L165.589595,72.5073529 C166.14188,72.5073529 166.589595,72.9550682 166.589595,73.5073529 L166.589595,158.007353 L166.589595,158.007353 C166.589595,158.559638 166.14188,159.007353 165.589595,159.007353 L45.5086705,159.007353 L45.5086705,159.007353 C44.9563858,159.007353 44.5086705,158.559638 44.5086705,158.007353 L44.5086705,73.5073529 L44.5086705,73.5073529 C44.5086705,72.9550682 44.9563858,72.5073529 45.5086705,72.5073529 L76.300578,72.5073529" id="Fill-61" stroke="none" fill="#FFFFFF" fill-rule="evenodd"></path>
                            <path d="M99.0858042,85.6181778 L92.8643444,33.3421959 L92.8643444,33.3421959 C92.8434046,33.1662481 92.8695908,32.9878958 92.940223,32.8253928 L104.632019,5.92617293 L104.632019,5.92617293 C104.852174,5.41966491 105.44125,5.18752965 105.947758,5.4076843 C106.180003,5.50862996 106.365301,5.69392807 106.466247,5.92617293 L118.158043,32.8253928 L118.158043,32.8253928 C118.228675,32.9878958 118.254861,33.1662481 118.233921,33.3421959 L112.012462,85.6181778 L112.012462,85.6181778 C111.952596,86.1212007 111.526042,86.5 111.019469,86.5 L100.078797,86.5 L100.078797,86.5 C99.5722239,86.5 99.1456698,86.1212007 99.0858042,85.6181778 Z" id="Fill-62" stroke="none" fill="#FFFFFF" fill-rule="evenodd"></path>
                            <path d="M16.8602311,119.501918 L25.0336415,125.63382 L25.0336415,125.63382 C25.2853794,125.82268 25.433526,126.119027 25.433526,126.433733 L25.433526,151.647059 L25.433526,151.647059 C25.433526,152.199344 24.9858108,152.647059 24.433526,152.647059 L16.2601156,152.647059 L16.2601156,152.647059 C15.7078309,152.647059 15.2601156,152.199344 15.2601156,151.647059 L15.2601156,120.301832 L15.2601156,120.301832 C15.2601156,119.749547 15.7078309,119.301832 16.2601156,119.301832 C16.4765352,119.301832 16.6871142,119.372041 16.8602311,119.501918 Z" id="Fill-63" stroke="none" fill="#FEECFF" fill-rule="evenodd"></path>
                            <path d="M116.275616,164.026025 L114.69069,159.665731 L114.69069,159.665731 C114.54702,159.270479 114.171406,159.007353 113.750853,159.007353 L97.3482991,159.007353 L97.3482991,159.007353 C96.9278102,159.007353 96.5522401,159.270399 96.408522,159.665565 L94.822724,164.025859 L94.822724,164.025859 C94.6339597,164.544884 94.9016885,165.11866 95.420713,165.307424 C95.5302615,165.347266 95.6459325,165.367647 95.7625011,165.367647 L115.335779,165.367647 L115.335779,165.367647 C115.888063,165.367647 116.335779,164.919932 116.335779,164.367647 C116.335779,164.251138 116.315418,164.135525 116.275616,164.026025 Z" id="Fill-64" stroke="none" fill="#FEECFF" fill-rule="evenodd"></path>
                            <path d="M107.466247,8.22686478 L118.158043,32.8253928 L118.158043,32.8253928 C118.228675,32.9878958 118.254861,33.1662481 118.233921,33.3421959 L112.012462,85.6181778 L112.012462,85.6181778 C111.952596,86.1212007 111.526042,86.5 111.019469,86.5 L106.549133,86.5 L106.549133,86.5 C105.996848,86.5 105.549133,86.0522847 105.549133,85.5 L105.549133,8.62549004 L105.549133,8.62549004 C105.549133,8.07320529 105.996848,7.62549004 106.549133,7.62549004 C106.947299,7.62549004 107.307528,7.86170074 107.466247,8.22686478 Z" id="Fill-65" stroke="none" fill="#FEECFF" fill-rule="evenodd"></path>
                            <path d="M166.589595,74.2330178 L166.589595,141.470588 L166.589595,141.470588 C166.589595,142.022873 166.14188,142.470588 165.589595,142.470588 L48.2647639,142.470588 L48.2647639,142.470588 C47.7124792,142.470588 47.2647639,142.022873 47.2647639,141.470588 C47.2647639,141.112178 47.4565752,140.781176 47.7675394,140.602966 L165.092371,73.3653959 L165.092371,73.3653959 C165.571545,73.0907863 166.182608,73.2566189 166.457217,73.7357932 C166.543959,73.8871507 166.589595,74.0585668 166.589595,74.2330178 Z" id="Fill-66" stroke="none" fill="#FEECFF" fill-rule="evenodd"></path>
                            <path d="M188.208092,134.838235 L188.772768,134.27339 L188.772556,134.273177 C189.162938,133.882677 189.162938,133.249676 188.772556,132.859176 L185.100064,129.185154 L185.100277,129.184942 C184.709894,128.794442 184.709894,128.161441 185.100277,127.770941 L185.66474,127.205882 L185.66474,127.205882 C185.955592,126.914943 186.427226,126.914872 186.718165,127.205724 C186.857907,127.345423 186.936416,127.534921 186.936416,127.732516" id="Stroke-67" stroke="#EF4D96" stroke-width="2" fill="none" stroke-linecap="round" stroke-linejoin="round"></path>
                            <path d="M197.109827,134.838235 L197.674502,134.27339 L197.67429,134.273177 C198.064672,133.882677 198.064672,133.249676 197.67429,132.859176 L194.001798,129.185154 L194.002011,129.184942 C193.611628,128.794442 193.611628,128.161441 194.002011,127.770941 L194.566474,127.205882 L194.566474,127.205882 C194.857326,126.914943 195.32896,126.914872 195.6199,127.205724 C195.759641,127.345423 195.83815,127.534921 195.83815,127.732516" id="Stroke-68" stroke="#EF4D96" stroke-width="2" fill="none" stroke-linecap="round" stroke-linejoin="round"></path>
                            <path d="M206.011561,134.838235 L206.576237,134.27339 L206.576024,134.273177 C206.966406,133.882677 206.966406,133.249676 206.576024,132.859176 L202.903532,129.185154 L202.903745,129.184942 C202.513362,128.794442 202.513362,128.161441 202.903745,127.770941 L203.468208,127.205882 L203.468208,127.205882 C203.75906,126.914943 204.230694,126.914872 204.521634,127.205724 C204.661375,127.345423 204.739884,127.534921 204.739884,127.732516" id="Stroke-69" stroke="#EF4D96" stroke-width="2" fill="none" stroke-linecap="round" stroke-linejoin="round"></path>
                            <path d="M119.089284,172.678709 L114.681139,159.686061 L114.681139,159.686061 C114.543477,159.280314 114.162624,159.007353 113.734159,159.007353 L97.364107,159.007353 L97.364107,159.007353 C96.9356421,159.007353 96.5547887,159.280314 96.4171266,159.686061 L92.0089814,172.678709 L92.0089814,172.678709 C91.831537,173.201711 92.1116675,173.769536 92.6346703,173.94698 C92.7381512,173.982089 92.8466871,174 92.9559618,174 L118.142304,174 L118.142304,174 C118.694589,174 119.142304,173.552285 119.142304,173 C119.142304,172.890725 119.124394,172.782189 119.089284,172.678709 Z" id="Stroke-71" stroke="#EF4D96" stroke-width="2" fill="none" stroke-linecap="round" stroke-linejoin="round"></path>
                            <path d="M24.433526,152.647059 L6.0867052,152.647059 L6.0867052,152.647059 C5.53442045,152.647059 5.0867052,152.199344 5.0867052,151.647059 L5.0867052,126.433733 L5.0867052,126.433733 C5.0867052,126.119027 5.23485178,125.82268 5.48658971,125.63382 L14.6600001,118.751693 L14.6600001,118.751693 C15.0156027,118.48491 15.5046285,118.48491 15.8602311,118.751693 L25.0336415,125.63382 L25.0336415,125.63382 C25.2853794,125.82268 25.433526,126.119027 25.433526,126.433733 L25.433526,151.647059 L25.433526,151.647059 C25.433526,152.199344 24.9858108,152.647059 24.433526,152.647059 Z" id="Stroke-72" stroke="#EF4D96" stroke-width="2" fill="none" stroke-linecap="round" stroke-linejoin="round"></path>
                            <path d="M5.0867052,132.294118 L1.2716763,132.294118" id="Stroke-73" stroke="#EF4D96" stroke-width="2" fill="none" stroke-linecap="round" stroke-linejoin="round"></path>
                            <path d="M5.0867052,125.933824 L2.5433526,124.661765" id="Stroke-74" stroke="#EF4D96" stroke-width="2" fill="none" stroke-linecap="round" stroke-linejoin="round"></path>
                            <path d="M5.0867052,139.926471 L1.2716763,139.926471" id="Stroke-75" stroke="#EF4D96" stroke-width="2" fill="none" stroke-linecap="round" stroke-linejoin="round"></path>
                            <path d="M5.0867052,147.558824 L1.2716763,147.558824" id="Stroke-76" stroke="#EF4D96" stroke-width="2" fill="none" stroke-linecap="round" stroke-linejoin="round"></path>
                            <path d="M25.433526,132.294118 L29.2485549,132.294118" id="Stroke-77" stroke="#EF4D96" stroke-width="2" fill="none" stroke-linecap="round" stroke-linejoin="round"></path>
                            <path d="M25.433526,139.926471 L29.2485549,139.926471" id="Stroke-78" stroke="#EF4D96" stroke-width="2" fill="none" stroke-linecap="round" stroke-linejoin="round"></path>
                            <path d="M25.433526,147.558824 L29.2485549,147.558824" id="Stroke-79" stroke="#EF4D96" stroke-width="2" fill="none" stroke-linecap="round" stroke-linejoin="round"></path>
                            <path d="M10.1734104,122.117647 L7.6300578,119.573529" id="Stroke-80" stroke="#EF4D96" stroke-width="2" fill="none" stroke-linecap="round" stroke-linejoin="round"></path>
                            <path d="M25.433526,125.933824 L27.9768786,124.661765" id="Stroke-81" stroke="#EF4D96" stroke-width="2" fill="none" stroke-linecap="round" stroke-linejoin="round"></path>
                            <path d="M20.3468208,122.117647 L22.8901734,119.573529" id="Stroke-82" stroke="#EF4D96" stroke-width="2" fill="none" stroke-linecap="round" stroke-linejoin="round"></path>
                            <path d="M1.58959538,157.735294 L28.9306358,157.735294" id="Stroke-83" stroke="#EF4D96" stroke-width="2" fill="none" stroke-linecap="round" stroke-linejoin="round"></path>
                            <path d="M11.4450867,145.650735 L12.3471511,144.297232 L12.3471511,144.297232 C12.5709813,143.961385 12.5709813,143.523909 12.3471511,143.188062 L10.5430224,140.481055 L10.5430224,140.481055 C10.3191921,140.145209 10.3191921,139.707732 10.5430224,139.371886 L12.3471511,136.664879 L12.3471511,136.664879 C12.5709813,136.329032 12.5709813,135.891556 12.3471511,135.555709 L10.5430224,132.848702 L10.5430224,132.848702 C10.3191921,132.512856 10.3191921,132.075379 10.5430224,131.739533 L11.4450867,130.386029 L11.4450867,130.386029 C11.6078111,130.141869 11.9376562,130.075853 12.1818162,130.238577 C12.3505899,130.351059 12.4405957,130.549819 12.4137979,130.750863" id="Stroke-84" stroke="#EF4D96" stroke-width="2" fill="none" stroke-linecap="round" stroke-linejoin="round"></path>
                            <path d="M19.0751445,145.650735 L19.9772089,144.297232 L19.9772089,144.297232 C20.2010391,143.961385 20.2010391,143.523909 19.9772089,143.188062 L18.1730802,140.481055 L18.1730802,140.481055 C17.9492499,140.145209 17.9492499,139.707732 18.1730802,139.371886 L19.9772089,136.664879 L19.9772089,136.664879 C20.2010391,136.329032 20.2010391,135.891556 19.9772089,135.555709 L18.1730802,132.848702 L18.1730802,132.848702 C17.9492499,132.512856 17.9492499,132.075379 18.1730802,131.739533 L19.0751445,130.386029 L19.0751445,130.386029 C19.2378689,130.141869 19.567714,130.075853 19.811874,130.238577 C19.9806477,130.351059 20.0706535,130.549819 20.0438557,130.750863" id="Stroke-85" stroke="#EF4D96" stroke-width="2" fill="none" stroke-linecap="round" stroke-linejoin="round"></path>
                            <path d="M109.696065,39.3853288 L106.60936,41.3150999 L106.60936,41.3150999 C105.960709,41.7206288 105.137557,41.7206288 104.488906,41.3150999 L101.402201,39.3853288 L101.402201,39.3853288 C100.817569,39.0198241 100.462428,38.3789595 100.462428,37.6894755 L100.462428,33.5458186 L100.462428,33.5458186 C100.462428,32.8563347 100.817569,32.2154701 101.402201,31.8499653 L104.488906,29.9201942 L104.488906,29.9201942 C105.137557,29.5146653 105.960709,29.5146653 106.60936,29.9201942 L109.696065,31.8499653 L109.696065,31.8499653 C110.280697,32.2154701 110.635838,32.8563347 110.635838,33.5458186 L110.635838,37.6894755 L110.635838,37.6894755 C110.635838,38.3789595 110.280697,39.0198241 109.696065,39.3853288 Z" id="Fill-89" stroke="none" fill="#FFFFFF" fill-rule="evenodd"></path>
                            <ellipse id="Oval" stroke="#EF4D96" stroke-width="2" fill="none" stroke-linecap="round" stroke-linejoin="round" cx="105.549133" cy="35.6176471" rx="6.3583815" ry="6.36029412"></ellipse>
                            <path d="M99.0858042,85.6181778 L93.2480383,36.5661939 L93.2480383,36.5661939 C92.9758199,34.2788719 93.3162407,31.960292 94.2344594,29.8477535 L104.632019,5.92617293 L104.632019,5.92617293 C104.852174,5.41966491 105.44125,5.18752965 105.947758,5.4076843 C106.180003,5.50862996 106.365301,5.69392807 106.466247,5.92617293 L116.863806,29.8477535 L116.863806,29.8477535 C117.782025,31.960292 118.122446,34.2788719 117.850228,36.5661939 L112.012462,85.6181778 L112.012462,85.6181778 C111.952596,86.1212007 111.526042,86.5 111.019469,86.5 L100.078797,86.5 L100.078797,86.5 C99.5722239,86.5 99.1456698,86.1212007 99.0858042,85.6181778 Z" id="Stroke-91" stroke="#EF4D96" stroke-width="2" fill="none" stroke-linecap="round" stroke-linejoin="round"></path>
                            <path d="M91.2443674,99.6002939 L85.9706281,105.930685 L85.9706281,105.930685 C85.6171268,106.355014 84.9865706,106.412431 84.5622414,106.05893 C84.5156967,106.020154 84.4727718,105.977229 84.4339962,105.930685 L79.1602569,99.6002939 L79.1602569,99.6002939 C78.9608821,99.3609722 78.8844129,99.0424128 78.9534256,98.7386654 L84.2271649,75.5272327 L84.2271649,75.5272327 C84.3495278,74.9886737 84.8853109,74.6512802 85.4238699,74.7736432 C85.7991456,74.8589074 86.0921951,75.151957 86.1774594,75.5272327 L91.4511987,98.7386654 L91.4511987,98.7386654 C91.5202114,99.0424128 91.4437422,99.3609722 91.2443674,99.6002939 Z" id="Fill-92" stroke="none" fill="#FFFFFF" fill-rule="evenodd"></path>
                            <path d="M91.2443674,99.6002939 L85.9706281,105.930685 L85.9706281,105.930685 C85.6171268,106.355014 84.9865706,106.412431 84.5622414,106.05893 C84.5156967,106.020154 84.4727718,105.977229 84.4339962,105.930685 L79.1602569,99.6002939 L79.1602569,99.6002939 C78.9608821,99.3609722 78.8844129,99.0424128 78.9534256,98.7386654 L84.2271649,75.5272327 L84.2271649,75.5272327 C84.3495278,74.9886737 84.8853109,74.6512802 85.4238699,74.7736432 C85.7991456,74.8589074 86.0921951,75.151957 86.1774594,75.5272327 L91.4511987,98.7386654 L91.4511987,98.7386654 C91.5202114,99.0424128 91.4437422,99.3609722 91.2443674,99.6002939 Z" id="Stroke-93" stroke="#EF4D96" stroke-width="2" fill="none" stroke-linecap="round" stroke-linejoin="round"></path>
                            <path d="M111.591188,99.6002939 L106.317449,105.930685 L106.317449,105.930685 C105.963948,106.355014 105.333391,106.412431 104.909062,106.05893 C104.862517,106.020154 104.819593,105.977229 104.780817,105.930685 L99.5070777,99.6002939 L99.5070777,99.6002939 C99.3077029,99.3609722 99.2312337,99.0424128 99.3002464,98.7386654 L104.573986,75.5272327 L104.573986,75.5272327 C104.696349,74.9886737 105.232132,74.6512802 105.770691,74.7736432 C106.145966,74.8589074 106.439016,75.151957 106.52428,75.5272327 L111.798019,98.7386654 L111.798019,98.7386654 C111.867032,99.0424128 111.790563,99.3609722 111.591188,99.6002939 Z" id="Fill-94" stroke="none" fill="#FFFFFF" fill-rule="evenodd"></path>
                            <path d="M111.591188,99.6002939 L106.317449,105.930685 L106.317449,105.930685 C105.963948,106.355014 105.333391,106.412431 104.909062,106.05893 C104.862517,106.020154 104.819593,105.977229 104.780817,105.930685 L99.5070777,99.6002939 L99.5070777,99.6002939 C99.3077029,99.3609722 99.2312337,99.0424128 99.3002464,98.7386654 L104.573986,75.5272327 L104.573986,75.5272327 C104.696349,74.9886737 105.232132,74.6512802 105.770691,74.7736432 C106.145966,74.8589074 106.439016,75.151957 106.52428,75.5272327 L111.798019,98.7386654 L111.798019,98.7386654 C111.867032,99.0424128 111.790563,99.3609722 111.591188,99.6002939 Z" id="Stroke-95" stroke="#EF4D96" stroke-width="2" fill="none" stroke-linecap="round" stroke-linejoin="round"></path>
                            <path d="M131.938009,99.6002939 L126.66427,105.930685 L126.66427,105.930685 C126.310768,106.355014 125.680212,106.412431 125.255883,106.05893 C125.209338,106.020154 125.166413,105.977229 125.127638,105.930685 L119.853899,99.6002939 L119.853899,99.6002939 C119.654524,99.3609722 119.578054,99.0424128 119.647067,98.7386654 L124.920807,75.5272327 L124.920807,75.5272327 C125.043169,74.9886737 125.578953,74.6512802 126.117511,74.7736432 C126.492787,74.8589074 126.785837,75.151957 126.871101,75.5272327 L132.14484,98.7386654 L132.14484,98.7386654 C132.213853,99.0424128 132.137384,99.3609722 131.938009,99.6002939 Z" id="Fill-96" stroke="none" fill="#FFFFFF" fill-rule="evenodd"></path>
                            <path d="M131.938009,99.6002939 L126.66427,105.930685 L126.66427,105.930685 C126.310768,106.355014 125.680212,106.412431 125.255883,106.05893 C125.209338,106.020154 125.166413,105.977229 125.127638,105.930685 L119.853899,99.6002939 L119.853899,99.6002939 C119.654524,99.3609722 119.578054,99.0424128 119.647067,98.7386654 L124.920807,75.5272327 L124.920807,75.5272327 C125.043169,74.9886737 125.578953,74.6512802 126.117511,74.7736432 C126.492787,74.8589074 126.785837,75.151957 126.871101,75.5272327 L132.14484,98.7386654 L132.14484,98.7386654 C132.213853,99.0424128 132.137384,99.3609722 131.938009,99.6002939 Z" id="Stroke-97" stroke="#EF4D96" stroke-width="2" fill="none" stroke-linecap="round" stroke-linejoin="round"></path>
                            <path d="M87.5867052,81.7304154 L96.4960694,63.8605331" id="Stroke-98" stroke="#EF4D96" stroke-width="2" fill="none" stroke-linecap="round" stroke-linejoin="round"></path>
                            <path d="M90.3859191,94.0491603 L99.1910058,86.4994912" id="Stroke-99" stroke="#EF4D96" stroke-width="2" fill="none" stroke-linecap="round" stroke-linejoin="round"></path>
                            <path d="M123.511561,81.7304154 L114.602197,63.8605331" id="Stroke-100" stroke="#EF4D96" stroke-width="2" fill="none" stroke-linecap="round" stroke-linejoin="round"></path>
                            <path d="M120.712347,94.0491603 L111.90726,86.4994912" id="Stroke-101" stroke="#EF4D96" stroke-width="2" fill="none" stroke-linecap="round" stroke-linejoin="round"></path>
                            <path d="M105.549133,6.36029412 L105.549133,0" id="Stroke-102" stroke="#EF4D96" stroke-width="2" fill="none" stroke-linecap="round" stroke-linejoin="round"></path>
                            <path d="M78.8439306,99.2205882 L91.5606936,99.2205882" id="Stroke-103" stroke="#EF4D96" stroke-width="2" fill="none" stroke-linecap="round" stroke-linejoin="round"></path>
                            <path d="M99.1907514,99.2205882 L111.907514,99.2205882" id="Stroke-104" stroke="#EF4D96" stroke-width="2" fill="none" stroke-linecap="round" stroke-linejoin="round"></path>
                            <path d="M119.537572,99.2205882 L132.254335,99.2205882" id="Stroke-105" stroke="#EF4D96" stroke-width="2" fill="none" stroke-linecap="round" stroke-linejoin="round"></path>
                            <path d="M211.028595,150.102941 L218.500173,150.102941 L218.500173,150.102941 C219.052458,150.102941 219.500173,150.550656 219.500173,151.102941 C219.500173,151.234931 219.474044,151.365616 219.423291,151.487458 L213.897993,164.752164 L213.897993,164.752164 C213.742748,165.124863 213.378614,165.367647 212.974875,165.367647 L209.371006,165.367647 L209.371006,165.367647 C208.818721,165.367647 208.371006,164.919932 208.371006,164.367647 C208.371006,164.326194 208.373583,164.284782 208.378723,164.243649" id="Stroke-108" stroke="#EF4D96" stroke-width="2" fill="none" stroke-linecap="round" stroke-linejoin="round"></path>
                            <path d="M105.549133,113.213235 L105.549133,120.845588" id="Stroke-109" stroke="#EF4D96" stroke-width="2" fill="none" stroke-linecap="round" stroke-linejoin="round"></path>
                            <path d="M105.549133,125.933824 L105.549133,128.477941" id="Stroke-110" stroke="#EF4D96" stroke-width="2" fill="none" stroke-linecap="round" stroke-linejoin="round"></path>
                            <path d="M110.635838,110.669118 L110.635838,118.301471" id="Stroke-111" stroke="#EF4D96" stroke-width="2" fill="none" stroke-linecap="round" stroke-linejoin="round"></path>
                            <path d="M110.635838,123.389706 L110.635838,125.933824" id="Stroke-112" stroke="#EF4D96" stroke-width="2" fill="none" stroke-linecap="round" stroke-linejoin="round"></path>
                            <path d="M100.462428,110.669118 L100.462428,118.301471" id="Stroke-113" stroke="#EF4D96" stroke-width="2" fill="none" stroke-linecap="round" stroke-linejoin="round"></path>
                            <path d="M100.462428,123.389706 L100.462428,125.933824" id="Stroke-114" stroke="#EF4D96" stroke-width="2" fill="none" stroke-linecap="round" stroke-linejoin="round"></path>
                            <path d="M105.549133,133.566176 L105.549133,134.838235" id="Stroke-115" stroke="#EF4D96" stroke-width="2" fill="none" stroke-linecap="round" stroke-linejoin="round"></path>
                            <path d="M110.635838,131.022059 L110.635838,132.294118" id="Stroke-116" stroke="#EF4D96" stroke-width="2" fill="none" stroke-linecap="round" stroke-linejoin="round"></path>
                            <path d="M100.462428,131.022059 L100.462428,132.294118" id="Stroke-117" stroke="#EF4D96" stroke-width="2" fill="none" stroke-linecap="round" stroke-linejoin="round"></path>
                            <path d="M85.2023121,113.213235 L85.2023121,120.845588" id="Stroke-118" stroke="#EF4D96" stroke-width="2" fill="none" stroke-linecap="round" stroke-linejoin="round"></path>
                            <path d="M85.2023121,125.933824 L85.2023121,128.477941" id="Stroke-119" stroke="#EF4D96" stroke-width="2" fill="none" stroke-linecap="round" stroke-linejoin="round"></path>
                            <path d="M90.2890173,110.669118 L90.2890173,118.301471" id="Stroke-120" stroke="#EF4D96" stroke-width="2" fill="none" stroke-linecap="round" stroke-linejoin="round"></path>
                            <path d="M90.2890173,123.389706 L90.2890173,125.933824" id="Stroke-121" stroke="#EF4D96" stroke-width="2" fill="none" stroke-linecap="round" stroke-linejoin="round"></path>
                            <path d="M80.1156069,110.669118 L80.1156069,118.301471" id="Stroke-122" stroke="#EF4D96" stroke-width="2" fill="none" stroke-linecap="round" stroke-linejoin="round"></path>
                            <path d="M80.1156069,123.389706 L80.1156069,125.933824" id="Stroke-123" stroke="#EF4D96" stroke-width="2" fill="none" stroke-linecap="round" stroke-linejoin="round"></path>
                            <path d="M85.2023121,133.566176 L85.2023121,134.838235" id="Stroke-124" stroke="#EF4D96" stroke-width="2" fill="none" stroke-linecap="round" stroke-linejoin="round"></path>
                            <path d="M90.2890173,131.022059 L90.2890173,132.294118" id="Stroke-125" stroke="#EF4D96" stroke-width="2" fill="none" stroke-linecap="round" stroke-linejoin="round"></path>
                            <path d="M80.1156069,131.022059 L80.1156069,132.294118" id="Stroke-126" stroke="#EF4D96" stroke-width="2" fill="none" stroke-linecap="round" stroke-linejoin="round"></path>
                            <path d="M125.895954,113.213235 L125.895954,120.845588" id="Stroke-127" stroke="#EF4D96" stroke-width="2" fill="none" stroke-linecap="round" stroke-linejoin="round"></path>
                            <path d="M125.895954,125.933824 L125.895954,128.477941" id="Stroke-128" stroke="#EF4D96" stroke-width="2" fill="none" stroke-linecap="round" stroke-linejoin="round"></path>
                            <path d="M130.982659,110.669118 L130.982659,118.301471" id="Stroke-129" stroke="#EF4D96" stroke-width="2" fill="none" stroke-linecap="round" stroke-linejoin="round"></path>
                            <path d="M130.982659,123.389706 L130.982659,125.933824" id="Stroke-130" stroke="#EF4D96" stroke-width="2" fill="none" stroke-linecap="round" stroke-linejoin="round"></path>
                            <path d="M120.809249,110.669118 L120.809249,118.301471" id="Stroke-131" stroke="#EF4D96" stroke-width="2" fill="none" stroke-linecap="round" stroke-linejoin="round"></path>
                            <path d="M120.809249,123.389706 L120.809249,125.933824" id="Stroke-132" stroke="#EF4D96" stroke-width="2" fill="none" stroke-linecap="round" stroke-linejoin="round"></path>
                            <path d="M125.895954,133.566176 L125.895954,134.838235" id="Stroke-133" stroke="#EF4D96" stroke-width="2" fill="none" stroke-linecap="round" stroke-linejoin="round"></path>
                            <path d="M130.982659,131.022059 L130.982659,132.294118" id="Stroke-134" stroke="#EF4D96" stroke-width="2" fill="none" stroke-linecap="round" stroke-linejoin="round"></path>
                            <path d="M120.809249,131.022059 L120.809249,132.294118" id="Stroke-135" stroke="#EF4D96" stroke-width="2" fill="none" stroke-linecap="round" stroke-linejoin="round"></path>
                            <path d="M137.34104,72.5073529 L165.589595,72.5073529 L165.589595,72.5073529 C166.14188,72.5073529 166.589595,72.9550682 166.589595,73.5073529 L166.589595,158.007353 L166.589595,158.007353 C166.589595,158.559638 166.14188,159.007353 165.589595,159.007353 L45.5086705,159.007353 L45.5086705,159.007353 C44.9563858,159.007353 44.5086705,158.559638 44.5086705,158.007353 L44.5086705,73.5073529 L44.5086705,73.5073529 C44.5086705,72.9550682 44.9563858,72.5073529 45.5086705,72.5073529 L76.300578,72.5073529" id="Stroke-136" stroke="#EF4D96" stroke-width="2" fill="none" stroke-linecap="round" stroke-linejoin="round"></path>
                            <path d="M44.5086705,142.470588 L166.589595,142.470588" id="Stroke-137" stroke="#EF4D96" stroke-width="2" fill="none" stroke-linecap="round" stroke-linejoin="round"></path>
                            <ellipse id="Oval-2" stroke="#EF4D96" stroke-width="2" fill="none" stroke-linecap="round" stroke-linejoin="round" cx="106.184971" cy="150.738971" rx="3.17919075" ry="3.18014706"></ellipse>
                        </g>
                    </g>
                </g>
            </g>
        </g>
    </g>
</svg>