<?xml version="1.0" encoding="UTF-8"?>
<svg width="179px" height="160px" viewBox="0 0 179 160" version="1.1" xmlns="http://www.w3.org/2000/svg" xmlns:xlink="http://www.w3.org/1999/xlink">
    <!-- Generator: Sketch 46.2 (44496) - http://www.bohemiancoding.com/sketch -->
    <title>ill 3</title>
    <desc>Created with Sketch.</desc>
    <defs>
        <rect id="path-1" x="0" y="0" width="240" height="180"></rect>
    </defs>
    <g id="Page-1" stroke="none" stroke-width="1" fill="none" fill-rule="evenodd">
        <g id="main-page-copy-2" transform="translate(-911.000000, -1447.000000)">
            <g id="ill-3" transform="translate(880.000000, 1427.000000)">
                <g id="ill">
                    <mask id="mask-2" fill="white">
                        <use xlink:href="#path-1"></use>
                    </mask>
                    <use id="Mask" fill-opacity="0" fill="#D8D8D8" xlink:href="#path-1"></use>
                    <g id="Group-2" mask="url(#mask-2)">
                        <g transform="translate(35.000000, 21.000000)">
                            <path d="M99.1422122,104.705882 L120.882353,104.705882 L127.748594,104.705882 L127.748594,104.705882 C127.875813,104.705882 128.001864,104.681607 128.119985,104.634359 L144.959626,97.8985026 L144.959626,97.8985026 C145.339284,97.7466392 145.588235,97.3789305 145.588235,96.9700259 L145.588235,75.9781848 L145.588235,75.9781848 C145.588235,75.5657711 145.335053,75.1956579 144.950682,75.0461801 L124.773434,67.1994727 L124.773434,67.1994727 C124.540773,67.1089934 124.282684,67.1088065 124.049892,67.1989487 L103.767376,75.0527896 L103.767376,75.0527896 C103.437607,75.1804836 103.1998,75.472851 103.141946,75.8217153 L102.060282,82.3441478 L102.060282,82.3441478 C102.05931,82.3500099 102.058285,82.3558633 102.057209,82.3617072 L98.158759,103.52472 L98.158759,103.52472 C98.0587058,104.067866 98.4179036,104.589282 98.9610498,104.689336 C99.0208091,104.700344 99.0814474,104.705882 99.1422122,104.705882 Z" id="Fill-1" stroke="none" fill="#FFFFFF" fill-rule="evenodd"></path>
                            <path d="M137.176471,49.4117647 L138.705882,49.4117647 L138.705882,49.4117647 C139.258167,49.4117647 139.705882,49.85948 139.705882,50.4117647 L139.705882,52.3175787 L139.705882,52.3175787 C139.705882,52.6992458 139.488631,53.0476297 139.145898,53.215569 L137.616486,53.9649808 L137.616486,53.9649808 C137.120539,54.2079945 136.521494,54.0029521 136.27848,53.5070057 C136.211364,53.3700334 136.176471,53.2195226 136.176471,53.0669905" id="Fill-2" stroke="none" fill="#FFFFFF" fill-rule="evenodd"></path>
                            <path d="M63.0844556,116.112955 L57.1159055,148.513656 L57.1159055,148.513656 C57.0158522,149.056802 57.3750501,149.578218 57.9181962,149.678272 C58.3968379,149.766442 58.8694487,149.497211 59.0377018,149.040524 L70.9748021,116.639823 L70.9748021,116.639823 C71.1657298,116.12159 70.9003969,115.546702 70.3821643,115.355775 C70.2714681,115.314992 70.1544288,115.294118 70.0364589,115.294118" id="Fill-3" stroke="none" fill="#FFFFFF" fill-rule="evenodd"></path>
                            <path d="M138.623655,116.189433 L142.728649,155.186875 L142.728649,155.186875 C142.786465,155.736125 142.388079,156.228249 141.838829,156.286065 C141.441945,156.327842 141.05822,156.129646 140.862568,155.781821 L122.930399,123.902409 L122.930399,123.902409 C122.659635,123.421051 122.04992,123.250331 121.568562,123.521095 C121.408938,123.610883 121.277037,123.742784 121.187248,123.902409 L103.420858,155.487102 L103.420858,155.487102 C103.150095,155.968459 102.540379,156.13918 102.059022,155.868416 C101.702966,155.668134 101.504535,155.271414 101.557828,154.866386 L106.650292,116.163663 L106.650292,116.163663 C106.715762,115.666093 107.139888,115.294118 107.641746,115.294118" id="Fill-4" stroke="none" fill="#FFFFFF" fill-rule="evenodd"></path>
                            <path d="M165.139169,115.294118 L57.8020072,115.294118 L57.8020072,115.294118 C57.5163694,115.294118 57.2443654,115.17197 57.0545979,114.958481 L49.420611,106.370246 L49.420611,106.370246 C49.053693,105.957463 49.0908737,105.325391 49.5036565,104.958473 C49.6867076,104.795761 49.9231062,104.705882 50.1680203,104.705882 L172.773156,104.705882 L172.773156,104.705882 C173.325441,104.705882 173.773156,105.153598 173.773156,105.705882 C173.773156,105.950797 173.683278,106.187195 173.520565,106.370246 L165.886579,114.958481 L165.886579,114.958481 C165.696811,115.17197 165.424807,115.294118 165.139169,115.294118 Z" id="Fill-5" stroke="none" fill="#FFFFFF" fill-rule="evenodd"></path>
                            <path d="M161.033191,116.112955 L167.001742,148.513656 L167.001742,148.513656 C167.101795,149.056802 166.742597,149.578218 166.199451,149.678272 C165.720809,149.766442 165.248198,149.497211 165.079945,149.040524 L153.142845,116.639823 L153.142845,116.639823 C152.951917,116.12159 153.21725,115.546702 153.735483,115.355775 C153.846179,115.314992 153.963218,115.294118 154.081188,115.294118" id="Fill-6" stroke="none" fill="#FFFFFF" fill-rule="evenodd"></path>
                            <path d="M164.730316,104.705882 L158.21086,104.705882 L158.21086,104.705882 C157.717289,104.705882 157.297539,104.345771 157.222488,103.85794 L155.17724,90.5638219 L155.17724,90.5638219 C155.093261,90.0179593 155.467691,89.5073719 156.013554,89.423393 C156.06387,89.4156521 156.114703,89.4117647 156.165611,89.4117647 L166.775565,89.4117647 L166.775565,89.4117647 C167.32785,89.4117647 167.775565,89.85948 167.775565,90.4117647 C167.775565,90.4626725 167.771678,90.513506 167.763937,90.5638219 L165.718688,103.85794 L165.718688,103.85794 C165.643637,104.345771 165.223887,104.705882 164.730316,104.705882 Z" id="Fill-7" stroke="none" fill="#FFFFFF" fill-rule="evenodd"></path>
                            <path d="M135.547861,60.2514437 L124.783155,64.5573261 L124.783155,64.5573261 C124.544744,64.6526905 124.278785,64.6526905 124.040374,64.5573261 L113.275668,60.2514437 L113.275668,60.2514437 C112.89601,60.0995804 112.647059,59.7318716 112.647059,59.322967 L112.647059,41.1457697 L112.647059,41.1457697 C112.647059,40.7802521 112.846484,40.4438554 113.167162,40.2684447 L123.931868,34.3801506 L123.931868,34.3801506 C124.230893,34.2165839 124.592636,34.2165839 124.891661,34.3801506 L135.656367,40.2684447 L135.656367,40.2684447 C135.977045,40.4438554 136.176471,40.7802521 136.176471,41.1457697 L136.176471,59.322967 L136.176471,59.322967 C136.176471,59.7318716 135.92752,60.0995804 135.547861,60.2514437 Z" id="Fill-8" stroke="none" fill="#FFFFFF" fill-rule="evenodd"></path>
                            <path d="M22.4644056,160 L13.4179474,160 L13.4179474,160 C12.9636773,160 12.5664815,159.693806 12.4508728,159.254493 L7.0948357,138.901552 L7.0948357,138.901552 C6.95428293,138.367452 7.27331642,137.820537 7.80741694,137.679984 C7.89048196,137.658125 7.97601714,137.647059 8.06191024,137.647059 L27.8204427,137.647059 L27.8204427,137.647059 C28.3727275,137.647059 28.8204427,138.094774 28.8204427,138.647059 C28.8204427,138.732952 28.8093765,138.818487 28.7875172,138.901552 L23.4314801,159.254493 L23.4314801,159.254493 C23.3158714,159.693806 22.9186757,160 22.4644056,160 Z" id="Fill-9" stroke="none" fill="#FFFFFF" fill-rule="evenodd"></path>
                            <path d="M122.930411,123.90243 L140.862568,155.781821 L140.862568,155.781821 C141.133332,156.263179 141.743047,156.433899 142.224405,156.163135 C142.57223,155.967484 142.770427,155.583758 142.728649,155.186875 L138.623655,116.189433 L138.623655,116.189433 C138.570082,115.680486 138.140909,115.294118 137.62915,115.294118 L113.524109,115.294118 L113.524109,115.294118 C113.022246,115.294118 112.598118,115.666099 112.532653,116.163674 L109.236598,141.215778 L109.236598,141.215778 C109.164556,141.763344 109.550044,142.265636 110.09761,142.337678 C110.50264,142.390967 110.899358,142.192532 111.099635,141.836473 L121.187254,123.90244 L121.187254,123.90244 C121.458012,123.421079 122.067725,123.250352 122.549086,123.52111 C122.708715,123.610899 122.84062,123.742802 122.930411,123.90243 Z" id="Fill-10" stroke="none" fill="#FEECFF" fill-rule="evenodd"></path>
                            <path d="M161.965418,121.17182 L161.033751,116.112997 L161.033751,116.112997 C160.946374,115.638547 160.53272,115.294118 160.050291,115.294118 L154.081658,115.294118 L154.081658,115.294118 C153.529374,115.294118 153.081658,115.741833 153.081658,116.294118 C153.081658,116.412062 153.102523,116.529076 153.143289,116.639751 L155.006622,121.698574 L155.006622,121.698574 C155.151438,122.091741 155.526003,122.352941 155.944992,122.352941 L160.981957,122.352941 L160.981957,122.352941 C161.534242,122.352941 161.981957,121.905226 161.981957,121.352941 C161.981957,121.292191 161.976421,121.231566 161.965418,121.17182 Z" id="Fill-11" stroke="none" fill="#FEECFF" fill-rule="evenodd"></path>
                            <path d="M62.1522289,121.17182 L63.0838956,116.112997 L63.0838956,116.112997 C63.1712736,115.638547 63.5849271,115.294118 64.0673565,115.294118 L70.0359887,115.294118 L70.0359887,115.294118 C70.5882735,115.294118 71.0359887,115.741833 71.0359887,116.294118 C71.0359887,116.412062 71.0151238,116.529076 70.9743586,116.639751 L69.1110252,121.698574 L69.1110252,121.698574 C68.9662089,122.091741 68.5916443,122.352941 68.1726554,122.352941 L63.1356898,122.352941 L63.1356898,122.352941 C62.5834051,122.352941 62.1356898,121.905226 62.1356898,121.352941 C62.1356898,121.292191 62.1412258,121.231566 62.1522289,121.17182 Z" id="Fill-12" stroke="none" fill="#FEECFF" fill-rule="evenodd"></path>
                            <path d="M18.9411765,137.647059 L27.8204427,137.647059 L27.8204427,137.647059 C28.3727275,137.647059 28.8204427,138.094774 28.8204427,138.647059 C28.8204427,138.732952 28.8093765,138.818487 28.7875172,138.901552 L23.4314801,159.254493 L23.4314801,159.254493 C23.3158714,159.693806 22.9186757,160 22.4644056,160 L18.9411765,160 L18.9411765,160 C18.3888917,160 17.9411765,159.552285 17.9411765,159 L17.9411765,138.647059 L17.9411765,138.647059 C17.9411765,138.094774 18.3888917,137.647059 18.9411765,137.647059 Z" id="Fill-13" stroke="none" fill="#FEECFF" fill-rule="evenodd"></path>
                            <path d="M161.882353,104.705882 L164.730316,104.705882 L164.730316,104.705882 C165.223887,104.705882 165.643637,104.345771 165.718688,103.85794 L167.763937,90.5638219 L167.763937,90.5638219 C167.847916,90.0179593 167.473485,89.5073719 166.927622,89.423393 C166.877307,89.4156521 166.826473,89.4117647 166.775565,89.4117647 L161.882353,89.4117647 L161.882353,89.4117647 C161.330068,89.4117647 160.882353,89.85948 160.882353,90.4117647 L160.882353,103.705882 L160.882353,103.705882 C160.882353,104.258167 161.330068,104.705882 161.882353,104.705882 Z" id="Fill-14" stroke="none" fill="#FEECFF" fill-rule="evenodd"></path>
                            <path d="M112.647059,46.1764706 L112.647059,45.8853889 L112.647059,45.8853889 C112.647059,45.5206976 112.845592,45.1849245 113.16514,45.009173 L123.929846,39.0885847 L123.929846,39.0885847 C124.229929,38.9235393 124.593601,38.9235393 124.893683,39.0885847 L135.658389,45.009173 L135.658389,45.009173 C135.977938,45.1849245 136.176471,45.5206976 136.176471,45.8853889 L136.176471,46.1764706 L136.176471,46.1764706 C136.176471,46.6637807 135.781428,47.0588235 135.294118,47.0588235 L113.529412,47.0588235 L113.529412,47.0588235 C113.042102,47.0588235 112.647059,46.6637807 112.647059,46.1764706 Z" id="Fill-15" stroke="none" fill="#FEECFF" fill-rule="evenodd"></path>
                            <path d="M135.547861,60.2514437 L124.783155,64.5573261 L124.783155,64.5573261 C124.544744,64.6526905 124.278785,64.6526905 124.040374,64.5573261 L113.275668,60.2514437 L113.275668,60.2514437 C112.89601,60.0995804 112.647059,59.7318716 112.647059,59.322967 L112.647059,43.5170837 L112.647059,43.5170837 C112.647059,41.6894957 113.644186,40.0075124 115.247575,39.1304588 L122.012281,35.4301647 L122.012281,35.4301647 C123.507406,34.6123312 125.316123,34.6123312 126.811248,35.4301647 L133.575954,39.1304588 L133.575954,39.1304588 C135.179343,40.0075124 136.176471,41.6894957 136.176471,43.5170837 L136.176471,59.322967 L136.176471,59.322967 C136.176471,59.7318716 135.92752,60.0995804 135.547861,60.2514437 Z" id="Stroke-16" stroke="#EF4D96" stroke-width="2" fill="none" stroke-linejoin="round"></path>
                            <path d="M118.529412,52.3529412 L118.529412,50.5882353" id="Stroke-17" stroke="#EF4D96" stroke-width="2" fill="none" stroke-linecap="round" stroke-linejoin="round"></path>
                            <path d="M127.941176,52.3529412 L127.941176,50.5882353" id="Stroke-18" stroke="#EF4D96" stroke-width="2" fill="none" stroke-linecap="round" stroke-linejoin="round"></path>
                            <path d="M64.5904137,103.977091 L56.5351287,75.3888557 L56.5351287,75.3888557 C56.3853443,74.8572703 56.6948551,74.3049109 57.2264406,74.1551265 C57.3146976,74.1302584 57.4059556,74.1176471 57.4976492,74.1176471 L94.243301,74.1176471 L94.243301,74.1176471 C94.6911353,74.1176471 95.084365,74.4153887 95.2058216,74.8464384 L103.261107,103.434674 L103.261107,103.434674 C103.410891,103.966259 103.10138,104.518619 102.569795,104.668403 C102.481538,104.693271 102.39028,104.705882 102.298586,104.705882 L65.5529343,104.705882 L65.5529343,104.705882 C65.1051,104.705882 64.7118703,104.408141 64.5904137,103.977091 Z" id="Fill-19" stroke="none" fill="#FFFFFF" fill-rule="evenodd"></path>
                            <path d="M64.5904137,103.977091 L56.5351287,75.3888557 L56.5351287,75.3888557 C56.3853443,74.8572703 56.6948551,74.3049109 57.2264406,74.1551265 C57.3146976,74.1302584 57.4059556,74.1176471 57.4976492,74.1176471 L94.243301,74.1176471 L94.243301,74.1176471 C94.6911353,74.1176471 95.084365,74.4153887 95.2058216,74.8464384 L103.261107,103.434674 L103.261107,103.434674 C103.410891,103.966259 103.10138,104.518619 102.569795,104.668403 C102.481538,104.693271 102.39028,104.705882 102.298586,104.705882 L65.5529343,104.705882 L65.5529343,104.705882 C65.1051,104.705882 64.7118703,104.408141 64.5904137,103.977091 Z" id="Stroke-20" stroke="#EF4D96" stroke-width="2" fill="none" stroke-linecap="round" stroke-linejoin="round"></path>
                            <path d="M82.201759,89.1203959 L79.6723473,90.8066705 L79.6723473,90.8066705 C79.3364478,91.0306034 78.8988463,91.0306034 78.5629469,90.8066705 L76.0335351,89.1203959 L76.0335351,89.1203959 C75.7553364,88.9349302 75.5882353,88.6226988 75.5882353,88.2883457 L75.5882353,85.8293014 L75.5882353,85.8293014 C75.5882353,85.4949482 75.7553364,85.1827169 76.0335351,84.9972511 L78.5629469,83.3109766 L78.5629469,83.3109766 C78.8988463,83.0870437 79.3364478,83.0870437 79.6723473,83.3109766 L82.201759,84.9972511 L82.201759,84.9972511 C82.4799577,85.1827169 82.6470588,85.4949482 82.6470588,85.8293014 L82.6470588,88.2883457 L82.6470588,88.2883457 C82.6470588,88.6226988 82.4799577,88.9349302 82.201759,89.1203959 Z" id="Fill-21" stroke="none" fill="#FEECFF" fill-rule="evenodd"></path>
                            <path d="M81.1787348,89.8024121 L80.8823529,90 L80.8823529,90 C79.813733,90.7124133 78.4215611,90.7124133 77.3529412,90 L77.0565593,89.8024121 L77.0565593,89.8024121 C76.1392318,89.1908604 75.5882353,88.1613141 75.5882353,87.0588235 L75.5882353,87.0588235 L75.5882353,87.0588235 C75.5882353,85.956333 76.1392318,84.9267867 77.0565593,84.3152349 L77.3529412,84.1176471 L77.3529412,84.1176471 C78.4215611,83.4052338 79.813733,83.4052338 80.8823529,84.1176471 L81.1787348,84.3152349 L81.1787348,84.3152349 C82.0960624,84.9267867 82.6470588,85.956333 82.6470588,87.0588235 L82.6470588,87.0588235 L82.6470588,87.0588235 C82.6470588,88.1613141 82.0960624,89.1908604 81.1787348,89.8024121 Z" id="Stroke-22" stroke="#EF4D96" stroke-width="2" fill="none" stroke-linejoin="round"></path>
                            <path d="M131.06737,71.3618887 L125.306102,82.911986 L125.306102,82.911986 C125.059584,83.4062001 124.459103,83.606998 123.964889,83.3604806 C123.770665,83.2636003 123.613233,83.1061591 123.516366,82.911929 L117.756016,71.3618317 L117.756016,71.3618317 C117.50953,70.8676018 117.710367,70.2671331 118.204596,70.0206471 C118.343214,69.9515145 118.495998,69.9155294 118.650899,69.9155294" id="Stroke-23" stroke="#EF4D96" stroke-width="2" fill="none" stroke-linecap="round" stroke-linejoin="round"></path>
                            <path d="M136.176471,47.0588235 L102.058824,47.0588235" id="Stroke-24" stroke="#EF4D96" stroke-width="2" fill="none" stroke-linecap="round" stroke-linejoin="round"></path>
                            <path d="M124.705882,58.2352941 L123.606685,58.6749731 L123.606685,58.6749731 C123.368274,58.7703376 123.102314,58.7703376 122.863903,58.6749731 L121.764706,58.2352941 L121.764706,58.2352941 C121.608294,58.1727292 121.532215,57.9952132 121.59478,57.8388009 C121.641102,57.7229953 121.753263,57.6470588 121.87799,57.6470588" id="Stroke-25" stroke="#EF4D96" stroke-width="2" fill="none" stroke-linecap="round" stroke-linejoin="round"></path>
                            <path d="M137.176471,49.4117647 L138.705882,49.4117647 L138.705882,49.4117647 C139.258167,49.4117647 139.705882,49.85948 139.705882,50.4117647 L139.705882,52.3175787 L139.705882,52.3175787 C139.705882,52.6992458 139.488631,53.0476297 139.145898,53.215569 L137.616486,53.9649808 L137.616486,53.9649808 C137.120539,54.2079945 136.521494,54.0029521 136.27848,53.5070057 C136.211364,53.3700334 136.176471,53.2195226 136.176471,53.0669905" id="Stroke-26" stroke="#EF4D96" stroke-width="2" fill="none" stroke-linecap="round" stroke-linejoin="round"></path>
                            <path d="M102.293176,100 L63.4708235,100" id="Stroke-27" stroke="#EF4D96" stroke-width="2" fill="none" stroke-linecap="round" stroke-linejoin="round"></path>
                            <path d="M104.376478,104.705882 L120.44126,104.705882 L120.44126,104.705882 C120.993545,104.705882 121.44126,104.258167 121.44126,103.705882 C121.44126,103.550637 121.405115,103.397524 121.335687,103.258669 L119.982746,100.552786 L119.982746,100.552786 C119.813354,100.214002 119.467091,100 119.088319,100 L103.614095,100 L103.614095,100 C103.061811,100 102.614095,100.447715 102.614095,101 C102.614095,101.091688 102.626705,101.18294 102.65157,101.271192 L103.413952,103.977074 L103.413952,103.977074 C103.535403,104.408132 103.928637,104.705882 104.376478,104.705882 Z" id="Fill-28" stroke="none" fill="#FFFFFF" fill-rule="evenodd"></path>
                            <path d="M104.376478,104.705882 L120.44126,104.705882 L120.44126,104.705882 C120.993545,104.705882 121.44126,104.258167 121.44126,103.705882 C121.44126,103.550637 121.405115,103.397524 121.335687,103.258669 L119.982746,100.552786 L119.982746,100.552786 C119.813354,100.214002 119.467091,100 119.088319,100 L103.614095,100 L103.614095,100 C103.061811,100 102.614095,100.447715 102.614095,101 C102.614095,101.091688 102.626705,101.18294 102.65157,101.271192 L103.413952,103.977074 L103.413952,103.977074 C103.535403,104.408132 103.928637,104.705882 104.376478,104.705882 Z" id="Stroke-29" stroke="#EF4D96" stroke-width="2" fill="none" stroke-linecap="round" stroke-linejoin="round"></path>
                            <path d="M138.529412,84.4976739 L138.529412,91.2579675 L138.529412,91.2579675 C138.529412,91.5765111 138.377651,91.8759975 138.120775,92.0643725 L123.345632,102.899477 L123.345632,102.899477 C122.900267,103.226078 122.80399,103.851881 123.130591,104.297246 C123.318966,104.554121 123.618453,104.705882 123.936996,104.705882 L127.748594,104.705882 L127.748594,104.705882 C127.875813,104.705882 128.001864,104.681607 128.119985,104.634359 L144.959626,97.8985026 L144.959626,97.8985026 C145.339284,97.7466392 145.588235,97.3789305 145.588235,96.9700259 L145.588235,75.9781848 L145.588235,75.9781848 C145.588235,75.5657711 145.335053,75.1956579 144.950682,75.0461801 L124.773434,67.1994727 L124.773434,67.1994727 C124.540773,67.1089934 124.282684,67.1088065 124.049892,67.1989487 L103.767376,75.0527896 L103.767376,75.0527896 C103.437607,75.1804836 103.1998,75.472851 103.141946,75.8217153 L102.245602,81.2266665 L102.245602,81.2266665 C102.155247,81.7715099 102.523682,82.2864404 103.068525,82.3767958 C103.111979,82.3840021 103.155862,82.3883295 103.199887,82.3897497" id="Stroke-30" stroke="#EF4D96" stroke-width="2" fill="none" stroke-linecap="round" stroke-linejoin="round"></path>
                            <path d="M138.529412,83.5294118 L138.529412,89.4117647" id="Stroke-31" stroke="#EF4D96" stroke-width="2" fill="none" stroke-linecap="round" stroke-linejoin="round"></path>
                            <path d="M165.139169,115.294118 L57.8020072,115.294118 L57.8020072,115.294118 C57.5163694,115.294118 57.2443654,115.17197 57.0545979,114.958481 L49.420611,106.370246 L49.420611,106.370246 C49.053693,105.957463 49.0908737,105.325391 49.5036565,104.958473 C49.6867076,104.795761 49.9231062,104.705882 50.1680203,104.705882 L172.773156,104.705882 L172.773156,104.705882 C173.325441,104.705882 173.773156,105.153598 173.773156,105.705882 C173.773156,105.950797 173.683278,106.187195 173.520565,106.370246 L165.886579,114.958481 L165.886579,114.958481 C165.696811,115.17197 165.424807,115.294118 165.139169,115.294118 Z" id="Stroke-32" stroke="#EF4D96" stroke-width="2" fill="none" stroke-linecap="round" stroke-linejoin="round"></path>
                            <path d="M63.0844556,116.112955 L55,160 L70.9748021,116.639823 L70.9748021,116.639823 C71.1657298,116.12159 70.9003969,115.546702 70.3821643,115.355775 C70.2714681,115.314992 70.1544288,115.294118 70.0364589,115.294118" id="Stroke-33" stroke="#EF4D96" stroke-width="2" fill="none" stroke-linecap="round" stroke-linejoin="round"></path>
                            <path d="M161.033191,116.112955 L169.117647,160 L153.142845,116.639823 L153.142845,116.639823 C152.951917,116.12159 153.21725,115.546702 153.735483,115.355775 C153.846179,115.314992 153.963218,115.294118 154.081188,115.294118" id="Stroke-34" stroke="#EF4D96" stroke-width="2" fill="none" stroke-linecap="round" stroke-linejoin="round"></path>
                            <path d="M138.623655,116.189433 L142.728649,155.186875 L142.728649,155.186875 C142.786465,155.736125 142.388079,156.228249 141.838829,156.286065 C141.441945,156.327842 141.05822,156.129646 140.862568,155.781821 L122.930399,123.902409 L122.930399,123.902409 C122.659635,123.421051 122.04992,123.250331 121.568562,123.521095 C121.408938,123.610883 121.277037,123.742784 121.187248,123.902409 L103.420858,155.487102 L103.420858,155.487102 C103.150095,155.968459 102.540379,156.13918 102.059022,155.868416 C101.702966,155.668134 101.504535,155.271414 101.557828,154.866386 L106.650292,116.163663 L106.650292,116.163663 C106.715762,115.666093 107.139888,115.294118 107.641746,115.294118" id="Stroke-38" stroke="#EF4D96" stroke-width="2" fill="none" stroke-linecap="round" stroke-linejoin="round"></path>
                            <path d="M158.529412,81.1764706 L158.998776,80.7071068 L158.998776,80.7071068 C159.3893,80.3165825 159.3893,79.6834175 158.998776,79.2928932 L155.707107,76.0012244 L155.707107,76.0012244 C155.316582,75.6107001 155.316582,74.9775352 155.707107,74.5870109 L156.176471,74.1176471 L156.176471,74.1176471 C156.445605,73.8485131 156.881957,73.8485131 157.151091,74.1176471 C157.280333,74.2468897 157.352941,74.4221804 157.352941,74.6049571" id="Stroke-39" stroke="#EF4D96" stroke-width="2" fill="none" stroke-linecap="round" stroke-linejoin="round"></path>
                            <path d="M166.764706,81.1764706 L167.23407,80.7071068 L167.23407,80.7071068 C167.624594,80.3165825 167.624594,79.6834175 167.23407,79.2928932 L163.942401,76.0012244 L163.942401,76.0012244 C163.551877,75.6107001 163.551877,74.9775352 163.942401,74.5870109 L164.411765,74.1176471 L164.411765,74.1176471 C164.680899,73.8485131 165.117251,73.8485131 165.386385,74.1176471 C165.515628,74.2468897 165.588235,74.4221804 165.588235,74.6049571" id="Stroke-40" stroke="#EF4D96" stroke-width="2" fill="none" stroke-linecap="round" stroke-linejoin="round"></path>
                            <path d="M164.730316,104.705882 L158.21086,104.705882 L158.21086,104.705882 C157.717289,104.705882 157.297539,104.345771 157.222488,103.85794 L155.17724,90.5638219 L155.17724,90.5638219 C155.093261,90.0179593 155.467691,89.5073719 156.013554,89.423393 C156.06387,89.4156521 156.114703,89.4117647 156.165611,89.4117647 L166.775565,89.4117647 L166.775565,89.4117647 C167.32785,89.4117647 167.775565,89.85948 167.775565,90.4117647 C167.775565,90.4626725 167.771678,90.513506 167.763937,90.5638219 L165.718688,103.85794 L165.718688,103.85794 C165.643637,104.345771 165.223887,104.705882 164.730316,104.705882 Z" id="Stroke-41" stroke="#EF4D96" stroke-width="2" fill="none" stroke-linecap="round" stroke-linejoin="round"></path>
                            <path d="M22.4644056,160 L13.4179474,160 L13.4179474,160 C12.9636773,160 12.5664815,159.693806 12.4508728,159.254493 L7.0948357,138.901552 L7.0948357,138.901552 C6.95428293,138.367452 7.27331642,137.820537 7.80741694,137.679984 C7.89048196,137.658125 7.97601714,137.647059 8.06191024,137.647059 L27.8204427,137.647059 L27.8204427,137.647059 C28.3727275,137.647059 28.8204427,138.094774 28.8204427,138.647059 C28.8204427,138.732952 28.8093765,138.818487 28.7875172,138.901552 L23.4314801,159.254493 L23.4314801,159.254493 C23.3158714,159.693806 22.9186757,160 22.4644056,160 Z" id="Stroke-42" stroke="#EF4D96" stroke-width="2" fill="none" stroke-linecap="round" stroke-linejoin="round"></path>
                            <path d="M24.2352941,117.647059 L27.3231425,117.647059 L27.3231425,117.647059 C27.7019145,117.647059 28.0481777,117.433056 28.2175697,117.094272 L31.305418,110.918576 L31.305418,110.918576 C31.5524073,110.424597 31.3521829,109.823924 30.8582044,109.576935 C30.576677,109.436171 30.2453047,109.436171 29.9637773,109.576935 L23.7880805,112.664783 L23.7880805,112.664783 C23.4492965,112.834175 23.2352941,113.180438 23.2352941,113.55921 L23.2352941,116.647059 L23.2352941,116.647059 C23.2352941,117.199344 23.6830094,117.647059 24.2352941,117.647059 Z" id="Fill-43" stroke="none" fill="#FFFFFF" fill-rule="evenodd"></path>
                            <path d="M24.2352941,117.647059 L27.3231425,117.647059 L27.3231425,117.647059 C27.7019145,117.647059 28.0481777,117.433056 28.2175697,117.094272 L31.305418,110.918576 L31.305418,110.918576 C31.5524073,110.424597 31.3521829,109.823924 30.8582044,109.576935 C30.576677,109.436171 30.2453047,109.436171 29.9637773,109.576935 L23.7880805,112.664783 L23.7880805,112.664783 C23.4492965,112.834175 23.2352941,113.180438 23.2352941,113.55921 L23.2352941,116.647059 L23.2352941,116.647059 C23.2352941,117.199344 23.6830094,117.647059 24.2352941,117.647059 Z" id="Stroke-44" stroke="#EF4D96" stroke-width="2" fill="none" stroke-linecap="round" stroke-linejoin="round"></path>
                            <path d="M11.6470588,125.882353 L8.46183203,125.882353 L8.46183203,125.882353 C8.13551824,125.882353 7.82972879,125.723142 7.64260011,125.455815 L2.15108956,117.6108 L2.15108956,117.6108 C1.83437505,117.158351 1.94440984,116.53482 2.39685913,116.218106 C2.70802438,116.00029 3.1157264,115.977562 3.44917361,116.159442 L12.125911,120.892208 L12.125911,120.892208 C12.4471718,121.067441 12.6470588,121.404159 12.6470588,121.770104 L12.6470588,124.882353 L12.6470588,124.882353 C12.6470588,125.434638 12.1993436,125.882353 11.6470588,125.882353 Z" id="Fill-45" stroke="none" fill="#FFFFFF" fill-rule="evenodd"></path>
                            <path d="M11.6470588,125.882353 L8.46183203,125.882353 L8.46183203,125.882353 C8.13551824,125.882353 7.82972879,125.723142 7.64260011,125.455815 L2.15108956,117.6108 L2.15108956,117.6108 C1.83437505,117.158351 1.94440984,116.53482 2.39685913,116.218106 C2.70802438,116.00029 3.1157264,115.977562 3.44917361,116.159442 L12.125911,120.892208 L12.125911,120.892208 C12.4471718,121.067441 12.6470588,121.404159 12.6470588,121.770104 L12.6470588,124.882353 L12.6470588,124.882353 C12.6470588,125.434638 12.1993436,125.882353 11.6470588,125.882353 Z" id="Stroke-46" stroke="#EF4D96" stroke-width="2" fill="none" stroke-linecap="round" stroke-linejoin="round"></path>
                            <path d="M25.4117647,95.2941176 L28.5969915,95.2941176 L28.5969915,95.2941176 C28.9233053,95.2941176 29.2290947,95.1349067 29.4162234,94.86758 L34.907734,87.0225649 L34.907734,87.0225649 C35.2244485,86.5701156 35.1144137,85.9465852 34.6619644,85.6298706 C34.3507992,85.412055 33.9430971,85.3893267 33.6096499,85.571207 L24.9329126,90.3039728 L24.9329126,90.3039728 C24.6116518,90.479206 24.4117647,90.8159242 24.4117647,91.1818684 L24.4117647,94.2941176 L24.4117647,94.2941176 C24.4117647,94.8464024 24.85948,95.2941176 25.4117647,95.2941176 Z" id="Fill-47" stroke="none" fill="#FFFFFF" fill-rule="evenodd"></path>
                            <path d="M25.4117647,95.2941176 L28.5969915,95.2941176 L28.5969915,95.2941176 C28.9233053,95.2941176 29.2290947,95.1349067 29.4162234,94.86758 L34.907734,87.0225649 L34.907734,87.0225649 C35.2244485,86.5701156 35.1144137,85.9465852 34.6619644,85.6298706 C34.3507992,85.412055 33.9430971,85.3893267 33.6096499,85.571207 L24.9329126,90.3039728 L24.9329126,90.3039728 C24.6116518,90.479206 24.4117647,90.8159242 24.4117647,91.1818684 L24.4117647,94.2941176 L24.4117647,94.2941176 C24.4117647,94.8464024 24.85948,95.2941176 25.4117647,95.2941176 Z" id="Stroke-48" stroke="#EF4D96" stroke-width="2" fill="none" stroke-linecap="round" stroke-linejoin="round"></path>
                            <path d="M7.64392405,106.734548 L-1.80178135,96.4301423 L-1.80178135,96.4301423 C-2.17497376,96.0230233 -2.14747083,95.3904559 -1.74035184,95.0172635 C-1.44855945,94.7497871 -1.02645673,94.6796016 -0.663808377,94.8382603 L13.2243482,100.914329 L13.2243482,100.914329 C13.5883356,101.073573 13.8235294,101.433188 13.8235294,101.830486 L13.8235294,106.058824 L13.8235294,106.058824 C13.8235294,106.611108 13.3758142,107.058824 12.8235294,107.058824 L8.38107819,107.058824 L8.38107819,107.058824 C8.10077181,107.058824 7.83333397,106.941177 7.64392405,106.734548 Z" id="Fill-49" stroke="none" fill="#FFFFFF" fill-rule="evenodd"></path>
                            <path d="M7.64392405,106.734548 L-1.80178135,96.4301423 L-1.80178135,96.4301423 C-2.17497376,96.0230233 -2.14747083,95.3904559 -1.74035184,95.0172635 C-1.44855945,94.7497871 -1.02645673,94.6796016 -0.663808377,94.8382603 L13.2243482,100.914329 L13.2243482,100.914329 C13.5883356,101.073573 13.8235294,101.433188 13.8235294,101.830486 L13.8235294,106.058824 L13.8235294,106.058824 C13.8235294,106.611108 13.3758142,107.058824 12.8235294,107.058824 L8.38107819,107.058824 L8.38107819,107.058824 C8.10077181,107.058824 7.83333397,106.941177 7.64392405,106.734548 Z" id="Stroke-50" stroke="#EF4D96" stroke-width="2" fill="none" stroke-linecap="round" stroke-linejoin="round"></path>
                            <path d="M18.5294118,137.647059 L18.5294118,75.2941176" id="Stroke-51" stroke="#EF4D96" stroke-width="2" fill="none" stroke-linecap="round" stroke-linejoin="round"></path>
                            <path d="M13.4482245,80.8762266 L5.32440004,74.3771671 L5.32440004,74.3771671 C4.8931381,74.0321575 4.26384573,74.1020789 3.91883618,74.5333408 C3.68351939,74.8274868 3.63346281,75.2289123 3.78933851,75.5718388 L7.77501901,84.3403359 L7.77501901,84.3403359 C7.88165299,84.5749307 8.0747332,84.759305 8.31399481,84.8550097 L12.4521387,86.5102673 L12.4521387,86.5102673 C12.9649223,86.7153807 13.5468927,86.4659648 13.7520061,85.9531812 C13.7992542,85.835061 13.8235294,85.70901 13.8235294,85.5817906 L13.8235294,81.6570954 L13.8235294,81.6570954 C13.8235294,81.3533117 13.6854397,81.0659988 13.4482245,80.8762266 Z" id="Fill-52" stroke="none" fill="#FFFFFF" fill-rule="evenodd"></path>
                            <path d="M13.4482245,80.8762266 L5.32440004,74.3771671 L5.32440004,74.3771671 C4.8931381,74.0321575 4.26384573,74.1020789 3.91883618,74.5333408 C3.68351939,74.8274868 3.63346281,75.2289123 3.78933851,75.5718388 L7.77501901,84.3403359 L7.77501901,84.3403359 C7.88165299,84.5749307 8.0747332,84.759305 8.31399481,84.8550097 L12.4521387,86.5102673 L12.4521387,86.5102673 C12.9649223,86.7153807 13.5468927,86.4659648 13.7520061,85.9531812 C13.7992542,85.835061 13.8235294,85.70901 13.8235294,85.5817906 L13.8235294,81.6570954 L13.8235294,81.6570954 C13.8235294,81.3533117 13.6854397,81.0659988 13.4482245,80.8762266 Z" id="Stroke-53" stroke="#EF4D96" stroke-width="2" fill="none" stroke-linecap="round" stroke-linejoin="round"></path>
                            <path d="M9.70588235,148.235294 L13.7046579,144.236519 L13.7046579,144.236519 C14.0951822,143.845994 14.7283472,143.845994 15.1188715,144.236519 L17.2340697,146.351717 L17.2340697,146.351717 C17.624594,146.742241 18.257759,146.742241 18.6482833,146.351717 L20.7634815,144.236519 L20.7634815,144.236519 C21.1540057,143.845994 21.7871707,143.845994 22.177695,144.236519 L26.1764706,148.235294" id="Stroke-54" stroke="#EF4D96" stroke-width="2" fill="none" stroke-linecap="round" stroke-linejoin="round"></path>
                            <path d="M94.7058824,29.2335116 L67.5043902,29.2335116 L67.5043902,29.2335116 C66.1120455,29.2335116 64.7827598,29.8140827 63.8365116,30.835473 L61.4394581,33.4228778 L61.4394581,33.4228778 C61.0641211,33.8280204 60.4314173,33.8521827 60.0262746,33.4768458 C59.8219966,33.2875961 59.7058824,33.021739 59.7058824,32.74327 L59.7058824,5 L59.7058824,5 C59.7058824,2.23857625 61.9444586,2.09353747e-14 64.7058824,2.04281037e-14 L94.7058824,2.21698067e-14 L94.7058824,2.22044605e-14 C97.4673061,2.16971894e-14 99.7058824,2.23857625 99.7058824,5 L99.7058824,24.2335116 L99.7058824,24.2335116 C99.7058824,26.9949353 97.4673061,29.2335116 94.7058824,29.2335116 Z" id="Stroke-356" stroke="#EF4D96" stroke-width="2" fill="none" stroke-linecap="round" stroke-linejoin="round" transform="translate(79.705882, 16.391334) scale(-1, 1) translate(-79.705882, -16.391334) "></path>
                            <path d="M82.564593,14.5701357 L81,14.5701357 L81,14.5701357 C80.4477153,14.5701357 80,14.1224205 80,13.5701357 L80,8.96379898 L80,8.96379898 C80,8.41151423 79.5522847,7.96379898 79,7.96379898 C78.6796419,7.96379898 78.378677,8.11728436 78.1905613,8.37659458 L73.7984906,14.4308951 L73.7984906,14.4308951 C73.4741866,14.8779358 73.5736842,15.5032342 74.0207249,15.8275382 C74.191463,15.9513996 74.3969953,16.0180995 74.6079293,16.0180995 L76.7941176,16.0180995 L76.7941176,16.0180995 C77.3464024,16.0180995 77.7941176,16.4658148 77.7941176,17.0180995 L77.7941176,21.345086 L77.7941176,21.345086 C77.7941176,21.8973707 78.2418329,22.345086 78.7941176,22.345086 C79.1318706,22.345086 79.4468013,22.1745925 79.6314493,21.8917813 L83.4019246,16.1168311 L83.4019246,16.1168311 C83.7038561,15.6543856 83.5737338,15.0347356 83.1112883,14.7328041 C82.9487125,14.6266581 82.7587523,14.5701357 82.564593,14.5701357 Z" id="Stroke-410" stroke="#EF4D96" stroke-width="2" fill="none" stroke-linejoin="round"></path>
                        </g>
                    </g>
                </g>
            </g>
        </g>
    </g>
</svg>