<?xml version="1.0" encoding="UTF-8"?>
<svg width="172px" height="171px" viewBox="0 0 172 171" version="1.1" xmlns="http://www.w3.org/2000/svg" xmlns:xlink="http://www.w3.org/1999/xlink">
    <!-- Generator: Sketch 46.2 (44496) - http://www.bohemiancoding.com/sketch -->
    <title>ill 2</title>
    <desc>Created with Sketch.</desc>
    <defs>
        <rect id="path-1" x="0" y="0" width="240" height="180"></rect>
    </defs>
    <g id="Page-1" stroke="none" stroke-width="1" fill="none" fill-rule="evenodd">
        <g id="main-page-copy-2" transform="translate(-354.000000, -1207.000000)">
            <g id="ill-2" transform="translate(320.000000, 1198.000000)">
                <g id="ill">
                    <mask id="mask-2" fill="white">
                        <use xlink:href="#path-1"></use>
                    </mask>
                    <use id="Mask" fill-opacity="0" fill="#D8D8D8" xlink:href="#path-1"></use>
                    <g id="illustration-4" mask="url(#mask-2)">
                        <g transform="translate(33.000000, 7.000000)">
                            <path d="M18.2534742,174 L10.5686117,174 L10.5686117,174 C9.96104421,174 9.38641841,173.723821 9.00687404,173.24939 L5.77568569,169.210405 L5.77568569,169.210405 C5.49198482,168.855779 5.33742331,168.415158 5.33742331,167.961015 L5.33742331,129.889744 L5.33742331,129.889744 C5.33742331,129.421871 5.17339087,128.968805 4.87386587,128.609375 L2.66871166,125.96319 L2.66871166,125.96319 C1.97837909,125.134791 2.09030412,123.903616 2.91870319,123.213283 C3.26959607,122.920873 3.71190071,122.760736 4.16866087,122.760736 L21.4846626,122.760736 L21.4846626,122.760736 C22.5892321,122.760736 23.4846626,123.656167 23.4846626,124.760736 L23.4846626,167.961015 L23.4846626,167.961015 C23.4846626,168.415158 23.3301011,168.855779 23.0464002,169.210405 L19.8152119,173.24939 L19.8152119,173.24939 C19.4356675,173.723821 18.8610417,174 18.2534742,174 Z" id="Fill-194" stroke="none" fill="#FFFFFF" fill-rule="evenodd"></path>
                            <path d="M36.0257669,170.8 L38.4306748,167.593456 L38.4306748,167.593456 C39.0934165,166.7098 40.3470192,166.530714 41.2306748,167.193456 C41.3822862,167.307165 41.5169663,167.441845 41.6306748,167.593456 L44.0355828,170.8 L44.0355828,170.8 C44.6983245,171.683656 44.5192384,172.937258 43.6355828,173.6 C43.2893905,173.859644 42.8683232,174 42.4355828,174 L37.6257669,174 L37.6257669,174 C36.5211974,174 35.6257669,173.104569 35.6257669,172 C35.6257669,171.56726 35.7661226,171.146192 36.0257669,170.8 Z" id="Fill-195" stroke="none" fill="#FFFFFF" fill-rule="evenodd"></path>
                            <path d="M130.50184,170.8 L128.096933,167.593456 L128.096933,167.593456 C127.434191,166.7098 126.180588,166.530714 125.296933,167.193456 C125.145321,167.307165 125.010641,167.441845 124.896933,167.593456 L122.492025,170.8 L122.492025,170.8 C121.829283,171.683656 122.008369,172.937258 122.892025,173.6 C123.238217,173.859644 123.659284,174 124.092025,174 L128.90184,174 L128.90184,174 C130.00641,174 130.90184,173.104569 130.90184,172 C130.90184,171.56726 130.761485,171.146192 130.50184,170.8 Z" id="Fill-196" stroke="none" fill="#FFFFFF" fill-rule="evenodd"></path>
                            <path d="M171.782513,171.11769 L159.794095,146.729958 L159.794095,146.729958 C159.659136,146.455414 159.588957,146.15357 159.588957,145.847648 L159.588957,134.187053 L159.588957,134.187053 C159.588957,133.702607 159.764794,133.234627 160.083804,132.870044 L161.457055,131.300613 L161.457055,131.300613 C161.925218,130.76557 161.871001,129.952311 161.335958,129.484149 C161.101296,129.27882 160.800084,129.165644 160.488274,129.165644 L149.616021,129.165644 L149.616021,129.165644 C148.905072,129.165644 148.328735,129.741982 148.328735,130.45293 C148.328735,130.76474 148.441911,131.065952 148.647239,131.300613 L150.020491,132.870044 L150.020491,132.870044 C150.339501,133.234627 150.515337,133.702607 150.515337,134.187053 L150.515337,145.847648 L150.515337,145.847648 C150.515337,146.15357 150.445158,146.455414 150.310199,146.729958 L138.321782,171.11769 L138.321782,171.11769 C137.834495,172.108964 138.243058,173.307575 139.234333,173.794862 C139.508877,173.929821 139.810722,174 140.116644,174 L169.987651,174 L169.987651,174 C171.09222,174 171.987651,173.104569 171.987651,172 C171.987651,171.694078 171.917472,171.392233 171.782513,171.11769 Z" id="Fill-197" stroke="none" fill="#FFFFFF" fill-rule="evenodd"></path>
                            <path d="M90.7361963,73.362424 L90.7361963,65.4927821 L90.7361963,65.4927821 C90.7361963,64.9898098 90.9257083,64.5053033 91.2669674,64.1358125 L93.0136748,62.2446037 L93.0136748,62.2446037 C93.5641775,61.6485591 93.5272584,60.719099 92.9312139,60.1685964 C92.6598014,59.9179217 92.3039032,59.7787141 91.9344407,59.7787141 L74.5931666,59.7787141 L74.5931666,59.7787141 C73.781796,59.7787141 73.1240502,60.4364599 73.1240502,61.2478305 C73.1240502,61.617293 73.2632578,61.9731912 73.5139325,62.2446037 L75.2606399,64.1358125 L75.2606399,64.1358125 C75.601899,64.5053033 75.791411,64.9898098 75.791411,65.4927821 L75.791411,73.362424 L75.791411,73.362424 C75.791411,74.0771429 75.4100145,74.7375406 74.7909559,75.0947374 L56.5096576,85.6430466 L56.5096576,85.6430466 C55.890599,86.0002434 55.5092025,86.6606412 55.5092025,87.3753601 L55.5092025,116.976403 L55.5092025,116.976403 C55.5092025,117.694679 55.8943729,118.357796 56.5182921,118.71367 L82.2728933,133.403698 L82.2728933,133.403698 C82.887059,133.754009 83.6405484,133.754009 84.2547141,133.403698 L110.009315,118.71367 L110.009315,118.71367 C110.633234,118.357796 111.018405,117.694679 111.018405,116.976403 L111.018405,87.3753601 L111.018405,87.3753601 C111.018405,86.6606412 110.637008,86.0002434 110.01795,85.6430466 L91.7366514,75.0947374 L91.7366514,75.0947374 C91.1175928,74.7375406 90.7361963,74.0771429 90.7361963,73.362424 Z" id="Fill-198" stroke="none" fill="#FFFFFF" fill-rule="evenodd"></path>
                            <path d="M74.8157638,157.037906 L82.8714062,162.676856 L82.8714062,162.676856 C83.4461046,163.079144 84.189561,163.150924 84.8306078,162.866015 L92.2171849,159.583092 L92.2171849,159.583092 C92.9394409,159.262089 93.404908,158.545846 93.404908,157.755469 L93.404908,154.546219 L93.404908,154.546219 C93.404908,154.015786 93.1941943,153.507078 92.8191215,153.132005 L90.6446206,150.957504 L90.6446206,150.957504 C90.299267,150.61215 89.7393382,150.61215 89.3939845,150.957504 C89.2281399,151.123349 89.1349693,151.348282 89.1349693,151.582822 L89.1349693,152.481723 L89.1349693,152.481723 C89.1349693,153.239268 88.7069646,153.931794 88.0293965,154.270578 L87,154.785276 L87,154.785276 C86.2712693,155.149641 85.3851399,154.854265 85.0207746,154.125534 C84.9183529,153.920691 84.8650307,153.694814 84.8650307,153.465792 L84.8650307,144.20359 L84.8650307,144.20359 C84.8650307,143.485876 84.4804585,142.823189 83.8573086,142.467104 L81.1288344,140.907975 L81.1288344,140.907975 C80.248299,140.404812 79.1265899,140.710733 78.6234269,141.591268 C78.3885085,142.002376 78.3214707,142.488337 78.4363096,142.947693 L79.2967278,146.389365 L79.2967278,146.389365 C79.4427966,146.97364 79.317797,147.592631 78.9564428,148.074436 L74.3626885,154.199442 L74.3626885,154.199442 C73.6999468,155.083098 73.8790329,156.3367 74.7626885,156.999442 C74.7801689,157.012552 74.7978631,157.025375 74.8157638,157.037906 Z" id="Fill-223" stroke="none" fill="#FFFFFF" fill-rule="evenodd"></path>
                            <path d="M77.532716,158.939044 L82.8708017,162.677007 L82.8708017,162.677007 C83.4455298,163.079457 84.1891181,163.151311 84.8302716,162.866354 L92.2166512,159.583519 L92.2166512,159.583519 C92.9389072,159.262516 93.4043742,158.546273 93.4043742,157.755896 L93.4043742,154.546646 L93.4043742,154.546646 C93.4043742,154.016213 93.1936606,153.507505 92.8185878,153.132432 L90.6440869,150.957931 L90.6440869,150.957931 C90.2987333,150.612577 89.7388044,150.612577 89.3934508,150.957931 C89.2276061,151.123776 89.1344356,151.348709 89.1344356,151.583249 L89.1344356,152.48215 L89.1344356,152.48215 C89.1344356,153.239695 88.7064308,153.932221 88.0288628,154.271005 L86.9994663,154.785703 L86.9994663,154.785703 C86.2707356,155.150068 85.3846062,154.854692 85.0202408,154.125961 C84.9178192,153.921118 84.8644969,153.695241 84.8644969,153.466219 L84.8644969,144.203847 L84.8644969,144.203847 C84.8644969,143.486224 84.4800216,142.823607 83.8569961,142.467487 L83.0604479,142.012182 L83.0604479,142.012182 C82.6079899,141.753558 82.0315441,141.910691 81.7729202,142.363149 C81.659585,142.561427 81.6220045,142.79408 81.6671489,143.017957 L82.4756104,147.027228 L82.4756104,147.027228 C82.5813834,147.551771 82.4725482,148.096824 82.1734392,148.540521 L77.0215426,156.182814 L77.0215426,156.182814 C76.4118439,157.087238 76.6392491,158.313399 77.532716,158.939044 Z" id="Fill-199" stroke="none" fill="#FEECFF" fill-rule="evenodd"></path>
                            <path d="M128.496933,174 L129.699387,174 L129.699387,174 C130.58372,174 131.300613,173.283106 131.300613,172.398773 C131.300613,172.052315 131.188243,171.715203 130.980368,171.438037 L129.058896,168.876074 L129.058896,168.876074 C128.587251,168.247214 127.695117,168.119767 127.066258,168.591411 C126.707859,168.86021 126.496933,169.282063 126.496933,169.730061 L126.496933,172 L126.496933,172 C126.496933,173.104569 127.392363,174 128.496933,174 Z" id="Fill-200" stroke="none" fill="#FEECFF" fill-rule="evenodd"></path>
                            <path d="M42.0306748,174 L43.2331288,174 L43.2331288,174 C44.1174621,174 44.8343558,173.283106 44.8343558,172.398773 C44.8343558,172.052315 44.7219851,171.715203 44.5141104,171.438037 L42.592638,168.876074 L42.592638,168.876074 C42.1209936,168.247214 41.2288592,168.119767 40.6,168.591411 C40.2416015,168.86021 40.0306748,169.282063 40.0306748,169.730061 L40.0306748,172 L40.0306748,172 C40.0306748,173.104569 40.9261053,174 42.0306748,174 Z" id="Fill-201" stroke="none" fill="#FEECFF" fill-rule="evenodd"></path>
                            <path d="M148.910166,162.293969 L144.494245,171.103785 L144.494245,171.103785 C143.99928,172.091248 144.398527,173.292994 145.38599,173.78796 C145.664166,173.927395 145.971039,174 146.282205,174 L169.987442,174 L169.987442,174 C171.092012,174 171.987442,173.104569 171.987442,172 C171.987442,171.694119 171.917282,171.392314 171.782358,171.117799 L167.452333,162.307983 L167.452333,162.307983 C167.116011,161.623705 166.41988,161.190184 165.657418,161.190184 L150.698125,161.190184 L150.698125,161.190184 C149.941301,161.190184 149.249304,161.617384 148.910166,162.293969 Z" id="Fill-202" stroke="none" fill="#FEECFF" fill-rule="evenodd"></path>
                            <path d="M10.6748466,150.380368 L10.6748466,172 L10.6748466,172 C10.6748466,173.104569 11.5702771,174 12.6748466,174 L18.2534742,174 L18.2534742,174 C18.8610417,174 19.4356675,173.723821 19.8152119,173.24939 L23.0464002,169.210405 L23.0464002,169.210405 C23.3301011,168.855779 23.4846626,168.415158 23.4846626,167.961015 L23.4846626,150.380368 L23.4846626,150.380368 C23.4846626,149.275799 22.5892321,148.380368 21.4846626,148.380368 L12.6748466,148.380368 L12.6748466,148.380368 C11.5702771,148.380368 10.6748466,149.275799 10.6748466,150.380368 Z" id="Fill-203" stroke="none" fill="#FEECFF" fill-rule="evenodd"></path>
                            <path d="M111.018405,116.976705 L111.018405,103.463224 L111.018405,103.463224 C111.018405,102.842286 110.729997,102.256568 110.237826,101.877976 L106.683855,99.1441515 L106.683855,99.1441515 C105.966378,98.5922465 104.967664,98.5910376 104.248853,99.1412042 L101.132145,101.526685 L101.132145,101.526685 C100.414763,102.075758 99.4183657,102.075758 98.7009841,101.526685 L95.5812245,99.1388687 L95.5812245,99.1388687 C94.8638429,98.5897958 93.8674455,98.5897958 93.1500639,99.1388687 L90.0303042,101.526685 L90.0303042,101.526685 C89.3129226,102.075758 88.3165252,102.075758 87.5991436,101.526685 L84.479384,99.1388687 L84.479384,99.1388687 C83.7620024,98.5897958 82.765605,98.5897958 82.0482234,99.1388687 L78.9284637,101.526685 L78.9284637,101.526685 C78.2110821,102.075758 77.2146847,102.075758 76.4973031,101.526685 L73.3775435,99.1388687 L73.3775435,99.1388687 C72.6601619,98.5897958 71.6637645,98.5897958 70.9463829,99.1388687 L67.8266232,101.526685 L67.8266232,101.526685 C67.1092416,102.075758 66.1128442,102.075758 65.3954626,101.526685 L61.1668514,98.2901707 L61.1668514,98.2901707 C61.1038616,98.2419593 61.0163757,98.2419487 60.9533742,98.2901448 L60.9533742,98.2901448 L60.9533742,98.2901448 C60.8860905,98.3416168 60.8466258,98.4214957 60.8466258,98.5062098 L60.8466258,113.467169 L60.8466258,113.467169 C60.8466258,114.182981 61.2291805,114.844216 61.8497331,115.20101 L87.9072176,130.183072 L87.9072176,130.183072 C88.5222965,130.536719 89.2786983,130.538028 89.8949973,130.186511 L110.009292,118.713985 L110.009292,118.713985 C110.633224,118.358115 111.018405,117.694991 111.018405,116.976705 Z" id="Fill-204" stroke="none" fill="#FEECFF" fill-rule="evenodd"></path>
                            <path d="M115.365813,18.6102298 L111.831608,14.9861838 L111.831608,14.9861838 C111.060423,14.1953948 109.794193,14.1795027 109.003404,14.9506879 C108.767857,15.1803953 108.592617,15.4646651 108.493217,15.7783008 L106.867326,20.9084498 L106.867326,20.9084498 C106.533615,21.9614032 107.116676,23.0855168 108.16963,23.4192278 C108.547911,23.5391158 108.953305,23.5437635 109.334236,23.4325796 L114.494332,21.9264765 L114.494332,21.9264765 C115.554659,21.6169935 116.163339,20.5065428 115.853856,19.4462155 C115.762084,19.1317943 115.594494,18.8447242 115.365813,18.6102298 Z" id="Fill-205" stroke="none" fill="#FEECFF" fill-rule="evenodd"></path>
                            <path d="M115.365813,18.6102298 L111.831608,14.9861838 L111.831608,14.9861838 C111.060423,14.1953948 109.794193,14.1795027 109.003404,14.9506879 C108.767857,15.1803953 108.592617,15.4646651 108.493217,15.7783008 L106.867326,20.9084498 L106.867326,20.9084498 C106.533615,21.9614032 107.116676,23.0855168 108.16963,23.4192278 C108.547911,23.5391158 108.953305,23.5437635 109.334236,23.4325796 L114.494332,21.9264765 L114.494332,21.9264765 C115.554659,21.6169935 116.163339,20.5065428 115.853856,19.4462155 C115.762084,19.1317943 115.594494,18.8447242 115.365813,18.6102298 Z" id="Stroke-206" stroke="#EF4D96" stroke-width="2" fill="none" stroke-linecap="round" stroke-linejoin="round"></path>
                            <path d="M119.753958,60.4135448 L119.931264,59.8851694 L119.931264,59.8851694 C120.282664,58.8379867 119.718621,57.7042111 118.671438,57.3528108 C118.359419,57.2481073 118.026382,57.2220231 117.701867,57.2768714 L117.117656,57.3756124 L117.117656,57.3756124 C116.028533,57.5596917 115.29485,58.5918259 115.47893,59.6809488 C115.54505,60.0721567 115.726033,60.4348592 115.998858,60.7229246 L116.405763,61.1525591 L116.405763,61.1525591 C117.16531,61.9545333 118.431173,61.9889277 119.233147,61.2293811 C119.470929,61.0041788 119.649769,60.7240299 119.753958,60.4135448 Z" id="Fill-207" stroke="none" fill="#FEECFF" fill-rule="evenodd"></path>
                            <path d="M119.753958,60.4135448 L119.931264,59.8851694 L119.931264,59.8851694 C120.282664,58.8379867 119.718621,57.7042111 118.671438,57.3528108 C118.359419,57.2481073 118.026382,57.2220231 117.701867,57.2768714 L117.117656,57.3756124 L117.117656,57.3756124 C116.028533,57.5596917 115.29485,58.5918259 115.47893,59.6809488 C115.54505,60.0721567 115.726033,60.4348592 115.998858,60.7229246 L116.405763,61.1525591 L116.405763,61.1525591 C117.16531,61.9545333 118.431173,61.9889277 119.233147,61.2293811 C119.470929,61.0041788 119.649769,60.7240299 119.753958,60.4135448 Z" id="Stroke-208" stroke="#EF4D96" stroke-width="2" fill="none" stroke-linecap="round" stroke-linejoin="round"></path>
                            <path d="M76.4838467,40.2469214 L76.4877178,39.6895742 L76.4877178,39.6895742 C76.4953893,38.5850313 75.6061995,37.6834034 74.5016566,37.6757318 C74.1726886,37.673447 73.8482365,37.7523461 73.5570523,37.9054372 L73.0325677,38.181187 L73.0325677,38.181187 C72.0548877,38.695206 71.6790161,39.9044669 72.1930351,40.882147 C72.3777101,41.2334047 72.6627079,41.5217822 73.0117642,41.7105851 L73.5323778,41.9921826 L73.5323778,41.9921826 C74.5039305,42.517691 75.7175383,42.1561007 76.2430468,41.184548 C76.398883,40.8964401 76.4815718,40.5744667 76.4838467,40.2469214 Z" id="Fill-209" stroke="none" fill="#FEECFF" fill-rule="evenodd"></path>
                            <path d="M76.4838467,40.2469214 L76.4877178,39.6895742 L76.4877178,39.6895742 C76.4953893,38.5850313 75.6061995,37.6834034 74.5016566,37.6757318 C74.1726886,37.673447 73.8482365,37.7523461 73.5570523,37.9054372 L73.0325677,38.181187 L73.0325677,38.181187 C72.0548877,38.695206 71.6790161,39.9044669 72.1930351,40.882147 C72.3777101,41.2334047 72.6627079,41.5217822 73.0117642,41.7105851 L73.5323778,41.9921826 L73.5323778,41.9921826 C74.5039305,42.517691 75.7175383,42.1561007 76.2430468,41.184548 C76.398883,40.8964401 76.4815718,40.5744667 76.4838467,40.2469214 Z" id="Stroke-210" stroke="#EF4D96" stroke-width="2" fill="none" stroke-linecap="round" stroke-linejoin="round"></path>
                            <path d="M37.5085288,29.7632871 L38.1432842,30.7449953 L38.1432842,30.7449953 C38.6258767,31.4913695 39.5431308,31.8297158 40.3948055,31.5755111 L42.6345406,30.9070032 L42.6345406,30.9070032 C43.4863345,30.6527629 44.4037096,30.9912414 44.8862442,31.7378011 L46.1548257,33.7005032 L46.1548257,33.7005032 C46.6373604,34.4470629 47.5547354,34.7855414 48.4065294,34.5313011 L50.646427,33.8627447 L50.646427,33.8627447 C51.4980247,33.6085629 52.4152005,33.9468238 52.8978304,34.693078 L53.5325411,35.6744834 L53.5325411,35.6744834 C53.7345335,35.986809 53.6450907,36.4037461 53.3327651,36.6057384 C53.1248255,36.7402206 52.8598566,36.7497385 52.6428039,36.6305224" id="Stroke-211" stroke="#EF4D96" stroke-width="2" fill="none" stroke-linecap="round" stroke-linejoin="round"></path>
                            <path d="M121.590453,36.1828196 L120.955697,37.1645278 L120.955697,37.1645278 C120.473105,37.910902 119.555851,38.2492483 118.704176,37.9950436 L116.464441,37.3265357 L116.464441,37.3265357 C115.612647,37.0722954 114.695272,37.4107739 114.212737,38.1573336 L112.944156,40.1200357 L112.944156,40.1200357 C112.461621,40.8665954 111.544246,41.2050739 110.692452,40.9508336 L108.452555,40.2822772 L108.452555,40.2822772 C107.600957,40.0280955 106.683781,40.3663563 106.201151,41.1126106 L105.56644,42.094016 L105.56644,42.094016 C105.364448,42.4063415 105.453891,42.8232786 105.766216,43.025271 C105.974156,43.1597532 106.239125,43.169271 106.456178,43.0500549" id="Stroke-212" stroke="#EF4D96" stroke-width="2" fill="none" stroke-linecap="round" stroke-linejoin="round"></path>
                            <path d="M90.8779583,3.17512638 L91.1164134,4.31947722 L91.1164134,4.31947722 C91.2977277,5.18960814 90.8830437,6.07499873 90.0985243,6.49276907 L88.0354168,7.59141007 L88.0354168,7.59141007 C87.2508974,8.00918041 86.8362134,8.894571 87.0175277,9.76470192 L87.494438,12.0534036 L87.494438,12.0534036 C87.6757523,12.9235345 87.2610682,13.8089251 86.4765489,14.2266955 L84.4134413,15.3253364 L84.4134413,15.3253364 C83.628922,15.7431068 83.2142379,16.6284974 83.3955522,17.4986283 L83.6340074,18.6429791 L83.6340074,18.6429791 C83.7099095,19.007235 84.066728,19.2409918 84.4309838,19.1650897 C84.6734747,19.1145604 84.8686808,18.9350413 84.9393003,18.6976221" id="Stroke-213" stroke="#EF4D96" stroke-width="2" fill="none" stroke-linecap="round" stroke-linejoin="round"></path>
                            <path d="M54.5967087,14.5086095 L53.1801623,14.2253002 L53.1801623,14.2253002 C52.388595,14.0669867 51.7698042,13.4483305 51.6113185,12.6567977 L51.3275094,11.2393556 L51.3275094,11.2393556 C51.1961596,10.5833487 51.4015198,9.9051123 51.8747052,9.43214991 L52.6256247,8.68158429 L52.6256247,8.68158429 C53.0984648,8.20896699 53.7761804,8.00385841 54.4317372,8.13496977 L55.8485701,8.41833636 L55.8485701,8.41833636 C56.6402926,8.57668086 57.2591547,9.19554294 57.4174992,9.98726544 L57.7008658,11.4040984 L57.7008658,11.4040984 C57.8319772,12.0596552 57.6268686,12.7373708 57.1542513,13.2102109 L56.4034878,13.9613283 L56.4034878,13.9613283 C55.9306344,14.4344047 55.252593,14.6397863 54.5967087,14.5086095 Z" id="Fill-214" stroke="none" fill="#FEECFF" fill-rule="evenodd"></path>
                            <path d="M54.5967087,14.5086095 L53.1801623,14.2253002 L53.1801623,14.2253002 C52.388595,14.0669867 51.7698042,13.4483305 51.6113185,12.6567977 L51.3275094,11.2393556 L51.3275094,11.2393556 C51.1961596,10.5833487 51.4015198,9.9051123 51.8747052,9.43214991 L52.6256247,8.68158429 L52.6256247,8.68158429 C53.0984648,8.20896699 53.7761804,8.00385841 54.4317372,8.13496977 L55.8485701,8.41833636 L55.8485701,8.41833636 C56.6402926,8.57668086 57.2591547,9.19554294 57.4174992,9.98726544 L57.7008658,11.4040984 L57.7008658,11.4040984 C57.8319772,12.0596552 57.6268686,12.7373708 57.1542513,13.2102109 L56.4034878,13.9613283 L56.4034878,13.9613283 C55.9306344,14.4344047 55.252593,14.6397863 54.5967087,14.5086095 Z" id="Stroke-215" stroke="#EF4D96" stroke-width="2" fill="none" stroke-linejoin="round"></path>
                            <path d="M43.9221594,53.8273315 L42.5052385,53.5439473 L42.5052385,53.5439473 C41.7137101,53.3856417 41.0949372,52.767037 40.9364162,51.9755517 L40.6526742,50.5588456 L40.6526742,50.5588456 C40.5213139,49.9029718 40.7265321,49.2248494 41.1995152,48.7518664 L41.950742,48.0006396 L41.950742,48.0006396 C42.4235888,47.5277928 43.1014673,47.3225477 43.7571878,47.4536918 L45.1736465,47.7369835 L45.1736465,47.7369835 C45.9654078,47.8953358 46.5842877,48.5142493 46.7425969,49.3060193 L47.0260305,50.7235884 L47.0260305,50.7235884 C47.1571314,51.3792783 46.951881,52.057108 46.4790614,52.5299275 L45.7286052,53.2803837 L45.7286052,53.2803837 C45.2557584,53.7532305 44.57788,53.9584756 43.9221594,53.8273315 Z" id="Fill-216" stroke="none" fill="#FEECFF" fill-rule="evenodd"></path>
                            <path d="M43.9221594,53.8273315 L42.5052385,53.5439473 L42.5052385,53.5439473 C41.7137101,53.3856417 41.0949372,52.767037 40.9364162,51.9755517 L40.6526742,50.5588456 L40.6526742,50.5588456 C40.5213139,49.9029718 40.7265321,49.2248494 41.1995152,48.7518664 L41.950742,48.0006396 L41.950742,48.0006396 C42.4235888,47.5277928 43.1014673,47.3225477 43.7571878,47.4536918 L45.1736465,47.7369835 L45.1736465,47.7369835 C45.9654078,47.8953358 46.5842877,48.5142493 46.7425969,49.3060193 L47.0260305,50.7235884 L47.0260305,50.7235884 C47.1571314,51.3792783 46.951881,52.057108 46.4790614,52.5299275 L45.7286052,53.2803837 L45.7286052,53.2803837 C45.2557584,53.7532305 44.57788,53.9584756 43.9221594,53.8273315 Z" id="Stroke-217" stroke="#EF4D96" stroke-width="2" fill="none" stroke-linejoin="round"></path>
                            <path d="M18.2534742,174 L10.5686117,174 L10.5686117,174 C9.96104421,174 9.38641841,173.723821 9.00687404,173.24939 L5.77568569,169.210405 L5.77568569,169.210405 C5.49198482,168.855779 5.33742331,168.415158 5.33742331,167.961015 L5.33742331,129.889744 L5.33742331,129.889744 C5.33742331,129.421871 5.17339087,128.968805 4.87386587,128.609375 L2.66871166,125.96319 L2.66871166,125.96319 C1.97837909,125.134791 2.09030412,123.903616 2.91870319,123.213283 C3.26959607,122.920873 3.71190071,122.760736 4.16866087,122.760736 L21.4846626,122.760736 L21.4846626,122.760736 C22.5892321,122.760736 23.4846626,123.656167 23.4846626,124.760736 L23.4846626,167.961015 L23.4846626,167.961015 C23.4846626,168.415158 23.3301011,168.855779 23.0464002,169.210405 L19.8152119,173.24939 L19.8152119,173.24939 C19.4356675,173.723821 18.8610417,174 18.2534742,174 Z" id="Stroke-218" stroke="#EF4D96" stroke-width="2" fill="none" stroke-linejoin="round"></path>
                            <path d="M9.60736196,135.570552 L12.809816,135.570552" id="Stroke-219" stroke="#EF4D96" stroke-width="2" fill="none" stroke-linecap="round" stroke-linejoin="round"></path>
                            <path d="M9.60736196,141.97546 L12.809816,141.97546" id="Stroke-220" stroke="#EF4D96" stroke-width="2" fill="none" stroke-linecap="round" stroke-linejoin="round"></path>
                            <path d="M9.60736196,154.785276 L12.809816,154.785276" id="Stroke-221" stroke="#EF4D96" stroke-width="2" fill="none" stroke-linecap="round" stroke-linejoin="round"></path>
                            <path d="M9.60736196,161.190184 L12.809816,161.190184" id="Stroke-222" stroke="#EF4D96" stroke-width="2" fill="none" stroke-linecap="round" stroke-linejoin="round"></path>
                            <path d="M74.8157638,157.037906 L82.8714062,162.676856 L82.8714062,162.676856 C83.4461046,163.079144 84.189561,163.150924 84.8306078,162.866015 L92.2171849,159.583092 L92.2171849,159.583092 C92.9394409,159.262089 93.404908,158.545846 93.404908,157.755469 L93.404908,154.546219 L93.404908,154.546219 C93.404908,154.015786 93.1941943,153.507078 92.8191215,153.132005 L90.6446206,150.957504 L90.6446206,150.957504 C90.299267,150.61215 89.7393382,150.61215 89.3939845,150.957504 C89.2281399,151.123349 89.1349693,151.348282 89.1349693,151.582822 L89.1349693,152.481723 L89.1349693,152.481723 C89.1349693,153.239268 88.7069646,153.931794 88.0293965,154.270578 L87,154.785276 L87,154.785276 C86.2712693,155.149641 85.3851399,154.854265 85.0207746,154.125534 C84.9183529,153.920691 84.8650307,153.694814 84.8650307,153.465792 L84.8650307,144.20359 L84.8650307,144.20359 C84.8650307,143.485876 84.4804585,142.823189 83.8573086,142.467104 L81.1288344,140.907975 L81.1288344,140.907975 C80.248299,140.404812 79.1265899,140.710733 78.6234269,141.591268 C78.3885085,142.002376 78.3214707,142.488337 78.4363096,142.947693 L79.2967278,146.389365 L79.2967278,146.389365 C79.4427966,146.97364 79.317797,147.592631 78.9564428,148.074436 L74.3626885,154.199442 L74.3626885,154.199442 C73.6999468,155.083098 73.8790329,156.3367 74.7626885,156.999442 C74.7801689,157.012552 74.7978631,157.025375 74.8157638,157.037906 Z" id="Stroke-224" stroke="#EF4D96" stroke-width="2" fill="none" stroke-linecap="round" stroke-linejoin="round"></path>
                            <path d="M92.9724434,174 L74.6226486,174 L74.6226486,174 C73.5443147,174 72.6701523,173.125838 72.6701523,172.047504 C72.6701523,171.590744 72.8302887,171.148439 73.1226994,170.797546 L75.1917184,168.314723 L75.1917184,168.314723 C75.571706,167.858738 76.1346012,167.595092 76.7281609,167.595092 L90.8669311,167.595092 L90.8669311,167.595092 C91.4604908,167.595092 92.023386,167.858738 92.4033736,168.314723 L94.4723926,170.797546 L94.4723926,170.797546 C95.1627252,171.625945 95.0508002,172.85712 94.2224011,173.547453 C93.8715082,173.839864 93.4292036,174 92.9724434,174 Z" id="Fill-225" stroke="none" fill="#FFFFFF" fill-rule="evenodd"></path>
                            <path d="M92.9724434,174 L74.6226486,174 L74.6226486,174 C73.5443147,174 72.6701523,173.125838 72.6701523,172.047504 C72.6701523,171.590744 72.8302887,171.148439 73.1226994,170.797546 L75.1917184,168.314723 L75.1917184,168.314723 C75.571706,167.858738 76.1346012,167.595092 76.7281609,167.595092 L90.8669311,167.595092 L90.8669311,167.595092 C91.4604908,167.595092 92.023386,167.858738 92.4033736,168.314723 L94.4723926,170.797546 L94.4723926,170.797546 C95.1627252,171.625945 95.0508002,172.85712 94.2224011,173.547453 C93.8715082,173.839864 93.4292036,174 92.9724434,174 Z" id="Stroke-226" stroke="#EF4D96" stroke-width="2" fill="none" stroke-linecap="round" stroke-linejoin="round"></path>
                            <path d="M90.7361963,73.362424 L90.7361963,65.4927821 L90.7361963,65.4927821 C90.7361963,64.9898098 90.9257083,64.5053033 91.2669674,64.1358125 L93.0136748,62.2446037 L93.0136748,62.2446037 C93.5641775,61.6485591 93.5272584,60.719099 92.9312139,60.1685964 C92.6598014,59.9179217 92.3039032,59.7787141 91.9344407,59.7787141 L74.5931666,59.7787141 L74.5931666,59.7787141 C73.781796,59.7787141 73.1240502,60.4364599 73.1240502,61.2478305 C73.1240502,61.617293 73.2632578,61.9731912 73.5139325,62.2446037 L75.2606399,64.1358125 L75.2606399,64.1358125 C75.601899,64.5053033 75.791411,64.9898098 75.791411,65.4927821 L75.791411,73.362424 L75.791411,73.362424 C75.791411,74.0771429 75.4100145,74.7375406 74.7909559,75.0947374 L56.5096576,85.6430466 L56.5096576,85.6430466 C55.890599,86.0002434 55.5092025,86.6606412 55.5092025,87.3753601 L55.5092025,116.976403 L55.5092025,116.976403 C55.5092025,117.694679 55.8943729,118.357796 56.5182921,118.71367 L82.2728933,133.403698 L82.2728933,133.403698 C82.887059,133.754009 83.6405484,133.754009 84.2547141,133.403698 L110.009315,118.71367 L110.009315,118.71367 C110.633234,118.357796 111.018405,117.694679 111.018405,116.976403 L111.018405,87.3753601 L111.018405,87.3753601 C111.018405,86.6606412 110.637008,86.0002434 110.01795,85.6430466 L91.7366514,75.0947374 L91.7366514,75.0947374 C91.1175928,74.7375406 90.7361963,74.0771429 90.7361963,73.362424 Z" id="Stroke-227" stroke="#EF4D96" stroke-width="2" fill="none" stroke-linejoin="round"></path>
                            <path d="M58.2846626,100.332883 L59.8445424,99.1389754 L59.8445424,99.1389754 C60.561924,98.5899026 61.5583214,98.5899026 62.275703,99.1389754 L65.3954626,101.526791 L65.3954626,101.526791 C66.1128442,102.075864 67.1092416,102.075864 67.8266232,101.526791 L70.9463829,99.1389754 L70.9463829,99.1389754 C71.6637645,98.5899026 72.6601619,98.5899026 73.3775435,99.1389754 L76.4973031,101.526791 L76.4973031,101.526791 C77.2146847,102.075864 78.2110821,102.075864 78.9284637,101.526791 L82.0482234,99.1389754 L82.0482234,99.1389754 C82.765605,98.5899026 83.7620024,98.5899026 84.479384,99.1389754 L87.5991436,101.526791 L87.5991436,101.526791 C88.3165252,102.075864 89.3129226,102.075864 90.0303042,101.526791 L93.1500639,99.1389754 L93.1500639,99.1389754 C93.8674455,98.5899026 94.8638429,98.5899026 95.5812245,99.1389754 L98.7009841,101.526791 L98.7009841,101.526791 C99.4183657,102.075864 100.414763,102.075864 101.132145,101.526791 L104.248853,99.1413109 L104.248853,99.1413109 C104.967664,98.5911443 105.966378,98.5923532 106.683855,99.1442583 L108.242945,100.343558 L108.242945,100.343558 C108.76397,100.744347 108.861441,101.491624 108.460652,102.01265 C108.235249,102.305673 107.886483,102.477323 107.516795,102.477181" id="Stroke-228" stroke="#EF4D96" stroke-width="2" fill="none" stroke-linecap="round" stroke-linejoin="round"></path>
                            <path d="M36.0257669,170.8 L38.4306748,167.593456 L38.4306748,167.593456 C39.0934165,166.7098 40.3470192,166.530714 41.2306748,167.193456 C41.3822862,167.307165 41.5169663,167.441845 41.6306748,167.593456 L44.0355828,170.8 L44.0355828,170.8 C44.6983245,171.683656 44.5192384,172.937258 43.6355828,173.6 C43.2893905,173.859644 42.8683232,174 42.4355828,174 L37.6257669,174 L37.6257669,174 C36.5211974,174 35.6257669,173.104569 35.6257669,172 C35.6257669,171.56726 35.7661226,171.146192 36.0257669,170.8 Z" id="Stroke-229" stroke="#EF4D96" stroke-width="2" fill="none" stroke-linecap="round" stroke-linejoin="round"></path>
                            <path d="M125.933825,163.011827 L114.577751,113.637594 L114.577751,113.637594 C114.368877,112.729447 113.560499,112.08589 112.628641,112.08589 L53.8989668,112.08589 L53.8989668,112.08589 C52.9671084,112.08589 52.1587303,112.729447 51.9498564,113.637594 L40.5937828,163.011827 L40.5937828,163.011827 C40.3461961,164.088291 41.0181338,165.161646 42.0945978,165.409233 C42.2416318,165.443051 42.3920202,165.460123 42.5428932,165.460123" id="Stroke-230" stroke="#EF4D96" stroke-width="2" fill="none" stroke-linecap="round" stroke-linejoin="round"></path>
                            <path d="M130.50184,170.8 L128.096933,167.593456 L128.096933,167.593456 C127.434191,166.7098 126.180588,166.530714 125.296933,167.193456 C125.145321,167.307165 125.010641,167.441845 124.896933,167.593456 L122.492025,170.8 L122.492025,170.8 C121.829283,171.683656 122.008369,172.937258 122.892025,173.6 C123.238217,173.859644 123.659284,174 124.092025,174 L128.90184,174 L128.90184,174 C130.00641,174 130.90184,173.104569 130.90184,172 C130.90184,171.56726 130.761485,171.146192 130.50184,170.8 Z" id="Stroke-231" stroke="#EF4D96" stroke-width="2" fill="none" stroke-linecap="round" stroke-linejoin="round"></path>
                            <path d="M145.183145,169.730061 L147.321317,165.464393" id="Stroke-232" stroke="#EF4D96" stroke-width="2" fill="none" stroke-linecap="round" stroke-linejoin="round"></path>
                            <path d="M171.782513,171.11769 L159.794095,146.729958 L159.794095,146.729958 C159.659136,146.455414 159.588957,146.15357 159.588957,145.847648 L159.588957,134.187053 L159.588957,134.187053 C159.588957,133.702607 159.764794,133.234627 160.083804,132.870044 L161.457055,131.300613 L161.457055,131.300613 C161.925218,130.76557 161.871001,129.952311 161.335958,129.484149 C161.101296,129.27882 160.800084,129.165644 160.488274,129.165644 L149.616021,129.165644 L149.616021,129.165644 C148.905072,129.165644 148.328735,129.741982 148.328735,130.45293 C148.328735,130.76474 148.441911,131.065952 148.647239,131.300613 L150.020491,132.870044 L150.020491,132.870044 C150.339501,133.234627 150.515337,133.702607 150.515337,134.187053 L150.515337,145.847648 L150.515337,145.847648 C150.515337,146.15357 150.445158,146.455414 150.310199,146.729958 L138.321782,171.11769 L138.321782,171.11769 C137.834495,172.108964 138.243058,173.307575 139.234333,173.794862 C139.508877,173.929821 139.810722,174 140.116644,174 L169.987651,174 L169.987651,174 C171.09222,174 171.987651,173.104569 171.987651,172 C171.987651,171.694078 171.917472,171.392233 171.782513,171.11769 Z" id="Stroke-233" stroke="#EF4D96" stroke-width="2" fill="none" stroke-linejoin="round"></path>
                            <path d="M166.902615,161.190184 L143.201253,161.190184" id="Stroke-237" stroke="#EF4D96" stroke-width="2" fill="none" stroke-linecap="round" stroke-linejoin="round"></path>
                            <path d="M82.2045288,80.3189436 L81.8305019,80.6929705 L81.8305019,80.6929705 C81.0494533,81.4740191 81.0494533,82.740349 81.8305019,83.5213976 L82.2045288,83.8954245 L82.2045288,83.8954245 C82.9855774,84.6764731 84.2519073,84.6764731 85.0329559,83.8954245 L85.4069828,83.5213976 L85.4069828,83.5213976 C86.1880313,82.740349 86.1880313,81.4740191 85.4069828,80.6929705 L85.0329559,80.3189436 L85.0329559,80.3189436 C84.2519073,79.537895 82.9855774,79.537895 82.2045288,80.3189436 Z" id="Stroke-238" stroke="#EF4D96" stroke-width="2" fill="none" stroke-linecap="round" stroke-linejoin="round"></path>
                            <path d="M65.3035778,90.0154406 L64.929551,90.3894674 L64.929551,90.3894674 C64.1485024,91.170516 64.1485024,92.436846 64.929551,93.2178945 L65.3035778,93.5919214 L65.3035778,93.5919214 C66.0846264,94.37297 67.3509564,94.37297 68.132005,93.5919214 L68.5060318,93.2178945 L68.5060318,93.2178945 C69.2870804,92.436846 69.2870804,91.170516 68.5060318,90.3894674 L68.132005,90.0154406 L68.132005,90.0154406 C67.3509564,89.234392 66.0846264,89.234392 65.3035778,90.0154406 Z" id="Stroke-239" stroke="#EF4D96" stroke-width="2" fill="none" stroke-linecap="round" stroke-linejoin="round"></path>
                            <path d="M85.3450785,121.020843 C85.3995202,121.020843 85.453962,121.042193 85.4955939,121.083825 L87.5046,123.091763 C87.5878638,123.175027 87.5878638,123.310598 87.5046,123.393861 L85.4955939,125.4018 C85.453962,125.444499 85.3995202,125.464782 85.3450785,125.464782 C85.2906368,125.464782 85.2351276,125.444499 85.1934957,125.4018 L83.1855571,123.393861 C83.1012258,123.310598 83.1012258,123.175027 83.1855571,123.091763 L85.1934957,121.083825 C85.2351276,121.042193 85.2906368,121.020843 85.3450785,121.020843 Z" id="Fill-240" stroke="none" fill="#EF4D96" fill-rule="evenodd"></path>
                            <path d="M93.9653374,104.055736 L91.9573988,106.063675 C91.8730675,106.146939 91.8730675,106.282509 91.9573988,106.365773 L93.9653374,108.373712 C94.0069693,108.416411 94.0624785,108.436693 94.1169202,108.436693 C94.171362,108.436693 94.2258037,108.416411 94.2674356,108.373712 L96.2764417,106.365773 C96.3597055,106.282509 96.3597055,106.146939 96.2764417,106.063675 L94.2674356,104.055736 C94.2258037,104.014104 94.171362,103.992755 94.1169202,103.992755 C94.0624785,103.992755 94.0069693,104.014104 93.9653374,104.055736 Z" id="Fill-242" stroke="none" fill="#EF4D96" fill-rule="evenodd"></path>
                            <path d="M72.8470748,115.034923 L70.8391362,117.042861 C70.7558724,117.126125 70.7558724,117.261696 70.8391362,117.34496 L72.8470748,119.352898 C72.8887067,119.395598 72.944216,119.41588 72.9986577,119.41588 C73.0530994,119.41588 73.1086086,119.395598 73.1502405,119.352898 L75.1581791,117.34496 C75.2414429,117.261696 75.2414429,117.126125 75.1581791,117.042861 L73.1502405,115.034923 C73.1086086,114.993291 73.0530994,114.971941 72.9986577,114.971941 C72.944216,114.971941 72.8887067,114.993291 72.8470748,115.034923 Z" id="Fill-244" stroke="none" fill="#EF4D96" fill-rule="evenodd"></path>
                            <path d="M83.797546,167.595092 L83.797546,169.730061" id="Stroke-246" stroke="#EF4D96" stroke-width="2" fill="none" stroke-linecap="round" stroke-linejoin="round"></path>
                            <path d="M78.993865,167.595092 L78.993865,169.730061" id="Stroke-248" stroke="#EF4D96" stroke-width="2" fill="none" stroke-linecap="round" stroke-linejoin="round"></path>
                            <path d="M88.601227,167.595092 L88.601227,169.730061" id="Stroke-250" stroke="#EF4D96" stroke-width="2" fill="none" stroke-linecap="round" stroke-linejoin="round"></path>
                            <path d="M5.33742331,148.380368 L23.4846626,148.380368" id="Stroke-252" stroke="#EF4D96" stroke-width="2" fill="none" stroke-linecap="round" stroke-linejoin="round"></path>
                        </g>
                    </g>
                </g>
            </g>
        </g>
    </g>
</svg>